<svg width="302" height="80" viewBox="0 0 302 80" fill="none" xmlns="http://www.w3.org/2000/svg">
<g clip-path="url(#clip0_445_21712)">
<path d="M126.32 61.8036H129.26C130.197 61.8036 130.906 61.5983 131.386 61.1877C131.874 60.7849 132.118 60.1883 132.118 59.3982C132.111 58.9256 131.994 58.5189 131.77 58.1781C131.545 57.8449 131.243 57.6087 130.863 57.4692V57.446C131.166 57.3065 131.398 57.0935 131.561 56.8069C131.731 56.5125 131.816 56.1678 131.816 55.7727C131.809 55.1297 131.592 54.6223 131.166 54.2504C130.739 53.8708 130.166 53.6772 129.446 53.6694H126.32V61.8036ZM127.273 57.1206V54.5758H129.271C129.798 54.5758 130.193 54.6804 130.457 54.8895C130.72 55.0987 130.852 55.4086 130.852 55.8192C130.852 56.6868 130.325 57.1206 129.271 57.1206H127.273ZM127.273 60.8972V57.9689H129.155C129.86 57.9689 130.371 58.0812 130.689 58.3059C131.007 58.5305 131.162 58.8946 131.154 59.3982C131.162 59.9172 131.003 60.2968 130.677 60.537C130.352 60.7771 129.837 60.8972 129.132 60.8972H127.273Z" fill="white"/>
<path d="M133.651 61.8036H138.275V60.8972H134.603V53.6694H133.651V61.8036Z" fill="white"/>
<path d="M142.628 61.9779C143.674 61.9624 144.503 61.575 145.115 60.8158C145.727 60.0567 146.04 59.0302 146.056 57.7365C146.04 56.4428 145.727 55.4163 145.115 54.6571C144.503 53.898 143.674 53.5106 142.628 53.4951C141.582 53.5106 140.753 53.898 140.141 54.6571C139.529 55.4163 139.215 56.4428 139.2 57.7365C139.215 59.0302 139.529 60.0567 140.141 60.8158C140.753 61.575 141.582 61.9624 142.628 61.9779ZM142.628 61.0715C141.861 61.0637 141.261 60.7655 140.827 60.1767C140.393 59.588 140.172 58.7746 140.164 57.7365C140.172 56.6984 140.393 55.885 140.827 55.2962C141.261 54.7075 141.861 54.4092 142.628 54.4015C143.395 54.4092 143.995 54.7075 144.429 55.2962C144.863 55.885 145.084 56.6984 145.091 57.7365C145.084 58.7746 144.863 59.588 144.429 60.1767C143.995 60.7655 143.395 61.0637 142.628 61.0715Z" fill="white"/>
<path d="M150.526 61.9779C151.432 61.9701 152.161 61.699 152.711 61.1644C153.261 60.6222 153.578 59.8746 153.663 58.9217L152.676 58.7939C152.598 59.5376 152.377 60.1031 152.013 60.4905C151.649 60.8778 151.153 61.0715 150.526 61.0715C149.751 61.0637 149.151 60.7694 148.725 60.1883C148.291 59.5996 148.07 58.7823 148.062 57.7365C148.07 56.6984 148.291 55.885 148.725 55.2962C149.159 54.7075 149.759 54.4092 150.526 54.4015C151.122 54.4015 151.603 54.5797 151.967 54.936C152.331 55.2924 152.571 55.8114 152.687 56.4931L153.64 56.3304C153.516 55.4551 153.179 54.7656 152.629 54.262C152.071 53.7585 151.37 53.5029 150.526 53.4951C149.48 53.5106 148.651 53.898 148.039 54.6571C147.427 55.4163 147.114 56.4428 147.098 57.7365C147.114 59.038 147.423 60.0683 148.028 60.8275C148.64 61.5789 149.472 61.9624 150.526 61.9779Z" fill="white"/>
<path d="M155.064 61.8036H156.017V59.2471L157.063 57.9805H157.086L159.817 61.8036H160.99L157.702 57.2368L160.665 53.6694H159.491L156.04 57.8876H156.017V53.6694H155.064V61.8036Z" fill="white"/>
<path d="M164.994 61.9779C165.901 61.9701 166.629 61.699 167.179 61.1644C167.729 60.6222 168.047 59.8746 168.132 58.9217L167.144 58.7939C167.067 59.5376 166.846 60.1031 166.482 60.4905C166.118 60.8778 165.622 61.0715 164.994 61.0715C164.22 61.0637 163.619 60.7694 163.193 60.1883C162.76 59.5996 162.539 58.7823 162.531 57.7365C162.539 56.6984 162.76 55.885 163.193 55.2962C163.627 54.7075 164.228 54.4092 164.994 54.4015C165.591 54.4015 166.071 54.5797 166.435 54.936C166.799 55.2924 167.04 55.8114 167.156 56.4931L168.109 56.3304C167.985 55.4551 167.648 54.7656 167.098 54.262C166.54 53.7585 165.839 53.5029 164.994 53.4951C163.949 53.5106 163.12 53.898 162.508 54.6571C161.896 55.4163 161.582 56.4428 161.567 57.7365C161.582 59.038 161.892 60.0683 162.496 60.8275C163.108 61.5789 163.941 61.9624 164.994 61.9779Z" fill="white"/>
<path d="M169.533 61.8036H170.485V58.0386H174.157V61.8036H175.11V53.6694H174.157V57.202H170.485V53.6694H169.533V61.8036Z" fill="white"/>
<path d="M181.958 61.8036H182.946L180.03 53.6694H179.1L176.172 61.8036H177.159L177.729 60.1651H181.389L181.958 61.8036ZM178.031 59.3285L179.553 54.9825H179.576L181.099 59.3285H178.031Z" fill="white"/>
<path d="M184.001 61.8036H184.954V53.6694H184.001V61.8036Z" fill="white"/>
<path d="M186.951 61.8036H187.904V55.1684H187.928L191.623 61.8036H192.762V53.6694H191.797V60.3046H191.774L188.079 53.6694H186.951V61.8036Z" fill="white"/>
<path d="M126.326 78.8465H127.29V71.6187H129.823V70.7124H123.792V71.6187H126.326V78.8465Z" fill="white"/>
<path d="M131.228 78.8465H136.108V77.9401H132.181V75.0816H135.783V74.2217H132.181V71.6187H136.108V70.7124H131.228V78.8465Z" fill="white"/>
<path d="M140.693 79.0208C141.599 79.0131 142.328 78.7419 142.878 78.2074C143.428 77.6651 143.745 76.9176 143.831 75.9647L142.843 75.8369C142.765 76.5806 142.545 77.1461 142.18 77.5334C141.816 77.9208 141.321 78.1144 140.693 78.1144C139.918 78.1067 139.318 77.8123 138.892 77.2313C138.458 76.6425 138.237 75.8253 138.23 74.7794C138.237 73.7414 138.458 72.928 138.892 72.3392C139.326 71.7504 139.926 71.4522 140.693 71.4444C141.29 71.4444 141.77 71.6226 142.134 71.979C142.498 72.3353 142.738 72.8544 142.854 73.5361L143.807 73.3734C143.683 72.498 143.346 71.8085 142.796 71.305C142.239 70.8015 141.537 70.5458 140.693 70.5381C139.647 70.5536 138.818 70.9409 138.206 71.7001C137.594 72.4593 137.281 73.4857 137.265 74.7794C137.281 76.0809 137.59 77.1112 138.195 77.8704C138.807 78.6219 139.639 79.0053 140.693 79.0208Z" fill="white"/>
<path d="M145.231 78.8465H146.184V75.0816H149.856V78.8465H150.809V70.7124H149.856V74.2449H146.184V70.7124H145.231V78.8465Z" fill="white"/>
<path d="M152.811 78.8465H153.764V72.2114H153.788L157.483 78.8465H158.622V70.7124H157.657V77.3475H157.634L153.939 70.7124H152.811V78.8465Z" fill="white"/>
<path d="M163.57 79.0208C164.616 79.0053 165.445 78.618 166.057 77.8588C166.669 77.0996 166.983 76.0732 166.998 74.7794C166.983 73.4857 166.669 72.4593 166.057 71.7001C165.445 70.9409 164.616 70.5536 163.57 70.5381C162.524 70.5536 161.696 70.9409 161.084 71.7001C160.472 72.4593 160.158 73.4857 160.142 74.7794C160.158 76.0732 160.472 77.0996 161.084 77.8588C161.696 78.618 162.524 79.0053 163.57 79.0208ZM163.57 78.1144C162.803 78.1067 162.203 77.8084 161.769 77.2197C161.335 76.6309 161.115 75.8175 161.107 74.7794C161.115 73.7414 161.335 72.928 161.769 72.3392C162.203 71.7504 162.803 71.4522 163.57 71.4444C164.337 71.4522 164.938 71.7504 165.371 72.3392C165.805 72.928 166.026 73.7414 166.034 74.7794C166.026 75.8175 165.805 76.6309 165.371 77.2197C164.938 77.8084 164.337 78.1067 163.57 78.1144Z" fill="white"/>
<path d="M168.517 78.8465H173.142V77.9401H169.47V70.7124H168.517V78.8465Z" fill="white"/>
<path d="M177.494 79.0208C178.54 79.0053 179.369 78.618 179.981 77.8588C180.593 77.0996 180.907 76.0732 180.922 74.7794C180.907 73.4857 180.593 72.4593 179.981 71.7001C179.369 70.9409 178.54 70.5536 177.494 70.5381C176.448 70.5536 175.619 70.9409 175.007 71.7001C174.395 72.4593 174.082 73.4857 174.066 74.7794C174.082 76.0732 174.395 77.0996 175.007 77.8588C175.619 78.618 176.448 79.0053 177.494 79.0208ZM177.494 78.1144C176.727 78.1067 176.127 77.8084 175.693 77.2197C175.259 76.6309 175.038 75.8175 175.031 74.7794C175.038 73.7414 175.259 72.928 175.693 72.3392C176.127 71.7504 176.727 71.4522 177.494 71.4444C178.261 71.4522 178.861 71.7504 179.295 72.3392C179.729 72.928 179.95 73.7414 179.958 74.7794C179.95 75.8175 179.729 76.6309 179.295 77.2197C178.861 77.8084 178.261 78.1067 177.494 78.1144Z" fill="white"/>
<path d="M185.392 79.0208C186.353 79.0053 187.112 78.6993 187.67 78.1028C188.22 77.5063 188.499 76.689 188.506 75.651V74.8259H185.497V75.7323H187.565C187.581 76.476 187.399 77.057 187.019 77.4753C186.639 77.8937 186.097 78.1067 185.392 78.1144C184.625 78.1067 184.025 77.8084 183.591 77.2197C183.157 76.6309 182.936 75.8175 182.929 74.7794C182.936 73.7414 183.157 72.928 183.591 72.3392C184.025 71.7504 184.625 71.4522 185.392 71.4444C185.973 71.4444 186.446 71.611 186.81 71.9441C187.174 72.2695 187.414 72.7537 187.53 73.3966L188.483 73.2223C188.352 72.4012 188.011 71.7504 187.461 71.2701C186.911 70.7898 186.221 70.5458 185.392 70.5381C184.339 70.5536 183.506 70.937 182.894 71.6885C182.29 72.4399 181.98 73.4702 181.964 74.7794C181.98 76.0809 182.29 77.1112 182.894 77.8704C183.506 78.6219 184.339 79.0053 185.392 79.0208Z" fill="white"/>
<path d="M191.88 78.8465H192.844V75.4534L195.691 70.7124H194.576L192.368 74.5122H192.345L190.149 70.7124H189.033L191.88 75.4534V78.8465Z" fill="white"/>
<path d="M168.435 16.1942V8.27767C168.434 7.9306 168.343 7.58973 168.169 7.28925C167.995 6.98877 167.746 6.73925 167.445 6.56572L160.518 2.60744C160.217 2.43373 159.876 2.34229 159.529 2.34229C159.181 2.34229 158.84 2.43373 158.539 2.60744L151.612 6.56572C151.312 6.73925 151.062 6.98877 150.888 7.28925C150.715 7.58973 150.623 7.9306 150.623 8.27767V16.1942C150.623 16.5413 150.715 16.8822 150.888 17.1826C151.062 17.4831 151.312 17.7326 151.612 17.9062L158.539 21.8645C158.84 22.0382 159.181 22.1296 159.529 22.1296C159.876 22.1296 160.217 22.0382 160.518 21.8645L167.445 17.9062C167.746 17.7326 167.995 17.4831 168.169 17.1826C168.343 16.8822 168.434 16.5413 168.435 16.1942Z" fill="white" stroke="black" stroke-linecap="round" stroke-linejoin="round"/>
<path d="M183.425 34.5429V26.6263C183.425 26.2792 183.333 25.9384 183.159 25.6379C182.986 25.3374 182.736 25.0879 182.435 24.9144L175.508 20.9561C175.208 20.7824 174.866 20.6909 174.519 20.6909C174.172 20.6909 173.83 20.7824 173.529 20.9561L166.602 24.9144C166.302 25.0879 166.052 25.3374 165.878 25.6379C165.705 25.9384 165.613 26.2792 165.613 26.6263V34.5429C165.613 34.8899 165.705 35.2308 165.878 35.5313C166.052 35.8318 166.302 36.0813 166.602 36.2548L173.529 40.2131C173.83 40.3868 174.172 40.4782 174.519 40.4782C174.866 40.4782 175.208 40.3868 175.508 40.2131L182.435 36.2548C182.736 36.0813 182.986 35.8318 183.159 35.5313C183.333 35.2308 183.425 34.8899 183.425 34.5429Z" fill="white" stroke="black" stroke-linecap="round" stroke-linejoin="round"/>
<path d="M153.445 34.5429V26.6263C153.444 26.2792 153.353 25.9384 153.179 25.6379C153.005 25.3374 152.756 25.0879 152.455 24.9144L145.528 20.9561C145.227 20.7824 144.886 20.6909 144.538 20.6909C144.191 20.6909 143.85 20.7824 143.549 20.9561L136.622 24.9144C136.321 25.0879 136.072 25.3374 135.898 25.6379C135.724 25.9384 135.633 26.2792 135.632 26.6263V34.5429C135.633 34.8899 135.724 35.2308 135.898 35.5313C136.072 35.8318 136.321 36.0813 136.622 36.2548L143.549 40.2131C143.85 40.3868 144.191 40.4782 144.538 40.4782C144.886 40.4782 145.227 40.3868 145.528 40.2131L152.455 36.2548C152.756 36.0813 153.005 35.8318 153.179 35.5313C153.353 35.2308 153.444 34.8899 153.445 34.5429Z" fill="white" stroke="black" stroke-linecap="round" stroke-linejoin="round"/>
<path d="M150.888 7.24829L159.527 12.2456L168.166 7.24829" fill="white"/>
<path d="M150.888 7.24829L159.527 12.2456L168.166 7.24829" stroke="black" stroke-linecap="round" stroke-linejoin="round"/>
<path d="M165.88 25.5969L174.519 30.5942L183.158 25.5969" fill="white"/>
<path d="M165.88 25.5969L174.519 30.5942L183.158 25.5969" stroke="black" stroke-linecap="round" stroke-linejoin="round"/>
<path d="M135.898 25.5969L144.537 30.5942L153.176 25.5969" fill="white"/>
<path d="M135.898 25.5969L144.537 30.5942L153.176 25.5969" stroke="black" stroke-linecap="round" stroke-linejoin="round"/>
<path d="M159.529 22.2107V12.2358" stroke="black" stroke-linecap="round" stroke-linejoin="round"/>
<path d="M174.519 40.5593V30.5845" stroke="black" stroke-linecap="round" stroke-linejoin="round"/>
<path d="M144.539 40.5593V30.5845" stroke="black" stroke-linecap="round" stroke-linejoin="round"/>
<path d="M169.138 12.5566H174.519V20.1006" stroke="black"/>
<path d="M149.919 12.5566H144.539V20.1006" stroke="black"/>
<line x1="153.869" y1="30.8975" x2="165.612" y2="30.8975" stroke="black"/>
</g>
<g clip-path="url(#clip1_445_21712)">
<path d="M22.9976 61.8364H23.9747V55.0325H23.9986L27.7878 61.8364H28.9555V53.4954H27.9665V60.2993H27.9427L24.1535 53.4954H22.9976V61.8364Z" fill="white"/>
<path d="M31.0035 61.8364H31.9806V58.2855H35.6864V57.4037H31.9806V54.4248H36.0201V53.4954H31.0035V61.8364Z" fill="white"/>
<path d="M39.5681 61.8364H40.5571V54.4248H43.1547V53.4954H36.9704V54.4248H39.5681V61.8364Z" fill="white"/>
<path d="M4.10694 79.4916C5.03637 79.4836 5.78309 79.2056 6.34711 78.6575C6.91112 78.1014 7.23681 77.3348 7.3242 76.3577L6.31136 76.2266C6.23192 76.9893 6.00552 77.5692 5.63216 77.9663C5.2588 78.3635 4.75039 78.5621 4.10694 78.5621C3.31256 78.5542 2.69691 78.2523 2.26 77.6565C1.81515 77.0528 1.58875 76.2147 1.5808 75.1423C1.58875 74.0778 1.81515 73.2437 2.26 72.64C2.70486 72.0363 3.3205 71.7304 4.10694 71.7225C4.71862 71.7225 5.21114 71.9052 5.5845 72.2706C5.95786 72.636 6.20412 73.1683 6.32327 73.8673L7.30037 73.7005C7.17326 72.8029 6.82771 72.0958 6.2637 71.5795C5.69174 71.0632 4.97282 70.801 4.10694 70.7931C3.03453 70.8089 2.18454 71.2061 1.55697 71.9846C0.92941 72.7631 0.607685 73.8157 0.591797 75.1423C0.607685 76.4769 0.925438 77.5334 1.54506 78.3119C2.17262 79.0825 3.02658 79.4757 4.10694 79.4916Z" fill="white"/>
<path d="M11.787 79.4916C12.8594 79.4757 13.7094 79.0785 14.337 78.3C14.9646 77.5215 15.2863 76.4689 15.3022 75.1423C15.2863 73.8157 14.9646 72.7631 14.337 71.9846C13.7094 71.2061 12.8594 70.8089 11.787 70.7931C10.7146 70.8089 9.86461 71.2061 9.23705 71.9846C8.60948 72.7631 8.28776 73.8157 8.27187 75.1423C8.28776 76.4689 8.60948 77.5215 9.23705 78.3C9.86461 79.0785 10.7146 79.4757 11.787 79.4916ZM11.787 78.5621C11.0006 78.5542 10.3849 78.2484 9.94008 77.6446C9.49522 77.0409 9.26882 76.2068 9.26088 75.1423C9.26882 74.0778 9.49522 73.2437 9.94008 72.64C10.3849 72.0363 11.0006 71.7304 11.787 71.7225C12.5735 71.7304 13.1891 72.0363 13.634 72.64C14.0788 73.2437 14.3052 74.0778 14.3132 75.1423C14.3052 76.2068 14.0788 77.0409 13.634 77.6446C13.1891 78.2484 12.5735 78.5542 11.787 78.5621Z" fill="white"/>
<path d="M16.8594 79.3128H21.6019V78.3834H17.8365V70.9718H16.8594V79.3128Z" fill="white"/>
<path d="M23.0384 79.3128H27.7808V78.3834H24.0155V70.9718H23.0384V79.3128Z" fill="white"/>
<path d="M29.2173 79.3128H34.222V78.3834H30.1944V75.4521H33.8883V74.5704H30.1944V71.9012H34.222V70.9718H29.2173V79.3128Z" fill="white"/>
<path d="M38.9233 79.4916C39.8527 79.4836 40.5994 79.2056 41.1634 78.6575C41.7275 78.1014 42.0532 77.3348 42.1405 76.3577L41.1277 76.2266C41.0483 76.9893 40.8219 77.5692 40.4485 77.9663C40.0751 78.3635 39.5667 78.5621 38.9233 78.5621C38.1289 78.5542 37.5132 78.2523 37.0763 77.6565C36.6315 77.0528 36.4051 76.2147 36.3971 75.1423C36.4051 74.0778 36.6315 73.2437 37.0763 72.64C37.5212 72.0363 38.1368 71.7304 38.9233 71.7225C39.535 71.7225 40.0275 71.9052 40.4008 72.2706C40.7742 72.636 41.0205 73.1683 41.1396 73.8673L42.1167 73.7005C41.9896 72.8029 41.644 72.0958 41.08 71.5795C40.5081 71.0632 39.7892 70.801 38.9233 70.7931C37.8509 70.8089 37.0009 71.2061 36.3733 71.9846C35.7457 72.7631 35.424 73.8157 35.4081 75.1423C35.424 76.4769 35.7418 77.5334 36.3614 78.3119C36.989 79.0825 37.8429 79.4757 38.9233 79.4916Z" fill="white"/>
<path d="M45.5667 79.3128H46.5557V71.9012H49.1533V70.9718H42.9691V71.9012H45.5667V79.3128Z" fill="white"/>
<path d="M50.5936 79.3128H51.5706V70.9718H50.5936V79.3128Z" fill="white"/>
<path d="M56.6456 79.4916C57.7181 79.4757 58.568 79.0785 59.1956 78.3C59.8232 77.5215 60.1449 76.4689 60.1608 75.1423C60.1449 73.8157 59.8232 72.7631 59.1956 71.9846C58.568 71.2061 57.7181 70.8089 56.6456 70.7931C55.5732 70.8089 54.7232 71.2061 54.0957 71.9846C53.4681 72.7631 53.1464 73.8157 53.1305 75.1423C53.1464 76.4689 53.4681 77.5215 54.0957 78.3C54.7232 79.0785 55.5732 79.4757 56.6456 79.4916ZM56.6456 78.5621C55.8592 78.5542 55.2435 78.2484 54.7987 77.6446C54.3538 77.0409 54.1274 76.2068 54.1195 75.1423C54.1274 74.0778 54.3538 73.2437 54.7987 72.64C55.2435 72.0363 55.8592 71.7304 56.6456 71.7225C57.4321 71.7304 58.0477 72.0363 58.4926 72.64C58.9374 73.2437 59.1638 74.0778 59.1718 75.1423C59.1638 76.2068 58.9374 77.0409 58.4926 77.6446C58.0477 78.2484 57.4321 78.5542 56.6456 78.5621Z" fill="white"/>
<path d="M61.718 79.3128H62.6951V72.5089H62.7189L66.5082 79.3128H67.6759V70.9718H66.6869V77.7757H66.6631L62.8738 70.9718H61.718V79.3128Z" fill="white"/>
<path d="M30.2617 33.7202L30.2988 9.32974L35.192 6.38086L41.3809 10.0477L40.172 11.8778L35.192 8.90534L32.3168 10.4856V20.2377H39.7569V22.7194H32.3168V35.0031L30.2617 33.7202Z" fill="white" stroke="white" stroke-width="0.5"/>
<path d="M42.3054 10.6748L41.2402 12.4329L43.8773 14.1403V31.9809L46.0582 30.6726V15.3237L48.8982 17.2846V14.8503L42.3054 10.6748Z" fill="white" stroke="white" stroke-width="0.5"/>
<path d="M28.4526 32.7053V10.751L26.2767 12.0109V21.8361L23.8995 13.8069L22.1035 14.8105V28.9938L23.8995 30.0502V20.1193L26.937 31.8462L28.4526 32.7053Z" fill="white" stroke="white" stroke-width="0.5"/>
<path fill-rule="evenodd" clip-rule="evenodd" d="M35.1117 2.01392L51.8893 11.6573V31.2686L35.1117 40.8878L18.334 31.2686V11.6573L35.1117 2.01392ZM35.1119 4.2532L20.1985 12.8502V29.9261L35.1119 38.7251L50.0255 29.9261V12.8502L35.1119 4.2532Z" fill="white"/>
</g>
<g clip-path="url(#clip2_445_21712)">
<path d="M260.887 62.081C261.75 62.0732 262.44 61.8654 262.957 61.4577C263.475 61.0499 263.741 60.505 263.757 59.8229C263.773 59.1878 263.553 58.6624 263.098 58.2469C262.651 57.8313 261.899 57.4549 260.84 57.1178C260.103 56.8904 259.586 56.6709 259.288 56.4592C258.998 56.2396 258.856 55.977 258.864 55.6712C258.872 55.287 259.025 54.9812 259.323 54.7538C259.613 54.5343 260.013 54.4206 260.523 54.4127C261.064 54.4127 261.507 54.5578 261.852 54.8479C262.197 55.1302 262.436 55.5457 262.569 56.0946L263.522 55.8946C263.373 55.1498 263.036 54.5656 262.51 54.1422C261.977 53.7188 261.318 53.5032 260.534 53.4954C259.742 53.5032 259.111 53.7071 258.641 54.1069C258.162 54.499 257.915 55.0204 257.9 55.6712C257.884 56.2122 258.076 56.6591 258.476 57.0119C258.868 57.3569 259.55 57.6862 260.523 57.9999C261.369 58.2586 261.961 58.5291 262.298 58.8114C262.643 59.0858 262.808 59.4269 262.792 59.8346C262.785 60.2423 262.612 60.5638 262.275 60.799C261.938 61.0343 261.479 61.1558 260.899 61.1636C260.154 61.1636 259.582 60.9872 259.182 60.6344C258.782 60.2815 258.543 59.7405 258.464 59.0113L257.5 59.176C257.594 60.1169 257.931 60.8343 258.511 61.3283C259.084 61.8301 259.876 62.081 260.887 62.081Z" fill="white"/>
<path d="M268.162 62.081C269.221 62.0653 270.06 61.6733 270.679 60.9049C271.298 60.1365 271.616 59.0976 271.632 57.7882C271.616 56.4788 271.298 55.4399 270.679 54.6715C270.06 53.9031 269.221 53.511 268.162 53.4954C267.104 53.511 266.265 53.9031 265.645 54.6715C265.026 55.4399 264.708 56.4788 264.693 57.7882C264.708 59.0976 265.026 60.1365 265.645 60.9049C266.265 61.6733 267.104 62.0653 268.162 62.081ZM268.162 61.1636C267.386 61.1558 266.778 60.8539 266.339 60.258C265.9 59.6621 265.677 58.8388 265.669 57.7882C265.677 56.7375 265.9 55.9142 266.339 55.3183C266.778 54.7224 267.386 54.4206 268.162 54.4127C268.938 54.4206 269.546 54.7224 269.985 55.3183C270.424 55.9142 270.648 56.7375 270.656 57.7882C270.648 58.8388 270.424 59.6621 269.985 60.258C269.546 60.8539 268.938 61.1558 268.162 61.1636Z" fill="white"/>
<path d="M276.156 62.081C277.073 62.0732 277.81 61.7987 278.367 61.2577C278.924 60.7089 279.245 59.9522 279.332 58.9878L278.332 58.8584C278.253 59.6112 278.03 60.1835 277.661 60.5756C277.293 60.9676 276.791 61.1636 276.156 61.1636C275.372 61.1558 274.764 60.8578 274.333 60.2698C273.894 59.6739 273.671 58.8467 273.663 57.7882C273.671 56.7375 273.894 55.9142 274.333 55.3183C274.772 54.7224 275.38 54.4206 276.156 54.4127C276.76 54.4127 277.246 54.5931 277.614 54.9537C277.983 55.3144 278.226 55.8397 278.344 56.5297L279.308 56.3651C279.183 55.4791 278.842 54.7812 278.285 54.2716C277.72 53.7619 277.011 53.5032 276.156 53.4954C275.098 53.511 274.259 53.9031 273.639 54.6715C273.02 55.4399 272.702 56.4788 272.687 57.7882C272.702 59.1054 273.016 60.1482 273.627 60.9166C274.247 61.6772 275.09 62.0653 276.156 62.081Z" fill="white"/>
<path d="M280.749 61.9046H281.714V53.6718H280.749V61.9046Z" fill="white"/>
<path d="M288.64 61.9046H289.639L286.687 53.6718H285.747L282.783 61.9046H283.782L284.359 60.2463H288.063L288.64 61.9046ZM284.664 59.3995L286.205 55.0008H286.229L287.769 59.3995H284.664Z" fill="white"/>
<path d="M290.707 61.9046H295.388V60.9872H291.671V53.6718H290.707V61.9046Z" fill="white"/>
<path d="M252.122 79.1543H257.061V78.2369H253.086V75.3436H256.732V74.4733H253.086V71.8388H257.061V70.9215H252.122V79.1543Z" fill="white"/>
<path d="M258.714 79.1543H263.395V78.2369H259.679V70.9215H258.714V79.1543Z" fill="white"/>
<path d="M264.813 79.1543H269.753V78.2369H265.777V75.3436H269.423V74.4733H265.777V71.8388H269.753V70.9215H264.813V79.1543Z" fill="white"/>
<path d="M271.406 79.1543H272.37V72.4739H272.394L275.169 79.1543H275.581L278.357 72.4739H278.38V79.1543H279.356V70.9215H278.062L275.393 77.4606H275.369L272.699 70.9215H271.406V79.1543Z" fill="white"/>
<path d="M281.364 79.1543H286.303V78.2369H282.328V75.3436H285.974V74.4733H282.328V71.8388H286.303V70.9215H281.364V79.1543Z" fill="white"/>
<path d="M287.956 79.1543H288.921V72.4386H288.944L292.684 79.1543H293.837V70.9215H292.861V77.6371H292.837L289.097 70.9215H287.956V79.1543Z" fill="white"/>
<path d="M297.822 79.1543H298.799V71.8388H301.363V70.9215H295.258V71.8388H297.822V79.1543Z" fill="white"/>
<rect x="273.442" y="30.5439" width="4.529" height="6.67097" rx="2.2645" fill="white" stroke="white"/>
<mask id="path-24-inside-1_445_21712" fill="white">
<path fill-rule="evenodd" clip-rule="evenodd" d="M272.69 36.826L272.123 36.826C270.642 36.826 269.291 37.6705 268.642 39.0014C268.148 40.0169 268.762 41.2266 269.879 41.3963C274.321 42.0711 277.368 42.0936 281.419 41.449C282.587 41.263 283.196 39.9717 282.634 38.9298C281.936 37.634 280.583 36.8259 279.112 36.8259L278.731 36.8259C278.153 37.9016 277.017 38.633 275.711 38.633C274.404 38.633 273.268 37.9016 272.69 36.826Z"/>
</mask>
<path fill-rule="evenodd" clip-rule="evenodd" d="M272.69 36.826L272.123 36.826C270.642 36.826 269.291 37.6705 268.642 39.0014C268.148 40.0169 268.762 41.2266 269.879 41.3963C274.321 42.0711 277.368 42.0936 281.419 41.449C282.587 41.263 283.196 39.9717 282.634 38.9298C281.936 37.634 280.583 36.8259 279.112 36.8259L278.731 36.8259C278.153 37.9016 277.017 38.633 275.711 38.633C274.404 38.633 273.268 37.9016 272.69 36.826Z" fill="white"/>
<path d="M272.123 36.826L272.123 37.826L272.123 36.826ZM272.69 36.826L273.571 36.3527L273.288 35.826L272.69 35.826L272.69 36.826ZM268.642 39.0014L269.541 39.4395H269.541L268.642 39.0014ZM269.879 41.3963L269.729 42.3849H269.729L269.879 41.3963ZM281.419 41.449L281.261 40.4614V40.4614L281.419 41.449ZM282.634 38.9298L283.515 38.4556V38.4556L282.634 38.9298ZM279.112 36.8259L279.112 35.8259L279.112 36.8259ZM278.731 36.8259L278.731 35.8259L278.133 35.8259L277.85 36.3527L278.731 36.8259ZM272.123 37.826L272.69 37.826L272.69 35.826L272.123 35.826L272.123 37.826ZM269.541 39.4395C270.023 38.4523 271.025 37.826 272.123 37.826L272.123 35.826C270.26 35.826 268.56 36.8886 267.744 38.5633L269.541 39.4395ZM270.03 40.4076C269.599 40.3422 269.333 39.8663 269.541 39.4395L267.744 38.5633C266.962 40.1675 267.926 42.111 269.729 42.3849L270.03 40.4076ZM281.261 40.4614C277.324 41.0881 274.381 41.0688 270.03 40.4076L269.729 42.3849C274.26 43.0734 277.412 43.0992 281.576 42.4365L281.261 40.4614ZM281.754 39.404C282.003 39.866 281.721 40.3883 281.261 40.4614L281.576 42.4365C283.454 42.1376 284.388 40.0774 283.515 38.4556L281.754 39.404ZM279.112 37.8259C280.216 37.8259 281.23 38.432 281.754 39.404L283.515 38.4556C282.642 36.8359 280.951 35.8259 279.112 35.8259L279.112 37.8259ZM278.731 37.8259L279.112 37.8259L279.112 35.8259L278.731 35.8259L278.731 37.8259ZM277.85 36.3527C277.439 37.1169 276.634 37.633 275.711 37.633V39.633C277.4 39.633 278.867 38.6863 279.612 37.2992L277.85 36.3527ZM275.711 37.633C274.787 37.633 273.982 37.1169 273.571 36.3527L271.809 37.2993C272.555 38.6863 274.021 39.633 275.711 39.633V37.633Z" fill="white" mask="url(#path-24-inside-1_445_21712)"/>
<rect x="287.436" y="8.38843" width="4.529" height="6.67097" rx="2.2645" fill="white" stroke="white"/>
<mask id="path-27-inside-2_445_21712" fill="white">
<path fill-rule="evenodd" clip-rule="evenodd" d="M286.679 14.6707L286.115 14.6707C284.634 14.6707 283.283 15.5152 282.634 16.8462C282.139 17.8617 282.754 19.0713 283.871 19.241C288.312 19.9158 291.36 19.9383 295.41 19.2937C296.579 19.1077 297.187 17.8164 296.626 16.7745C295.928 15.4787 294.575 14.6706 293.104 14.6707L292.72 14.6707C292.142 15.7463 291.006 16.4776 289.699 16.4776C288.393 16.4776 287.257 15.7463 286.679 14.6707Z"/>
</mask>
<path fill-rule="evenodd" clip-rule="evenodd" d="M286.679 14.6707L286.115 14.6707C284.634 14.6707 283.283 15.5152 282.634 16.8462C282.139 17.8617 282.754 19.0713 283.871 19.241C288.312 19.9158 291.36 19.9383 295.41 19.2937C296.579 19.1077 297.187 17.8164 296.626 16.7745C295.928 15.4787 294.575 14.6706 293.104 14.6707L292.72 14.6707C292.142 15.7463 291.006 16.4776 289.699 16.4776C288.393 16.4776 287.257 15.7463 286.679 14.6707Z" fill="white"/>
<path d="M286.115 14.6707L286.115 15.6707L286.115 14.6707ZM286.679 14.6707L287.56 14.1974L287.277 13.6707L286.679 13.6707L286.679 14.6707ZM282.634 16.8462L283.533 17.2843H283.533L282.634 16.8462ZM283.871 19.241L283.721 20.2297H283.721L283.871 19.241ZM295.41 19.2937L295.253 18.3061V18.3061L295.41 19.2937ZM296.626 16.7745L297.507 16.3003V16.3003L296.626 16.7745ZM293.104 14.6707L293.104 13.6707L293.104 14.6707ZM292.72 14.6707L292.72 13.6707L292.122 13.6707L291.839 14.1973L292.72 14.6707ZM286.115 15.6707L286.679 15.6707L286.679 13.6707L286.115 13.6707L286.115 15.6707ZM283.533 17.2843C284.014 16.2971 285.016 15.6707 286.115 15.6707L286.115 13.6707C284.252 13.6707 282.552 14.7333 281.735 16.4081L283.533 17.2843ZM284.021 18.2524C283.591 18.1869 283.325 17.711 283.533 17.2843L281.735 16.4081C280.954 18.0123 281.918 19.9557 283.721 20.2297L284.021 18.2524ZM295.253 18.3061C291.316 18.9328 288.373 18.9135 284.021 18.2524L283.721 20.2297C288.252 20.9182 291.404 20.9439 295.568 20.2813L295.253 18.3061ZM295.746 17.2487C295.995 17.7107 295.712 18.233 295.253 18.3061L295.568 20.2813C297.446 19.9824 298.38 17.9221 297.507 16.3003L295.746 17.2487ZM293.104 15.6707C294.208 15.6706 295.222 16.2767 295.746 17.2487L297.507 16.3003C296.634 14.6806 294.943 13.6706 293.104 13.6707L293.104 15.6707ZM292.72 15.6707L293.104 15.6707L293.104 13.6707L292.72 13.6707L292.72 15.6707ZM291.839 14.1973C291.428 14.9616 290.623 15.4776 289.699 15.4776V17.4776C291.389 17.4776 292.855 16.5309 293.6 15.144L291.839 14.1973ZM289.699 15.4776C288.776 15.4776 287.971 14.9616 287.56 14.1974L285.798 15.144C286.544 16.531 288.01 17.4776 289.699 17.4776V15.4776Z" fill="white" mask="url(#path-27-inside-2_445_21712)"/>
<rect x="258.681" y="8.38843" width="4.529" height="6.67097" rx="2.2645" fill="white" stroke="white"/>
<mask id="path-30-inside-3_445_21712" fill="white">
<path fill-rule="evenodd" clip-rule="evenodd" d="M257.928 14.6707L257.361 14.6707C255.88 14.6707 254.529 15.5152 253.88 16.8462C253.386 17.8617 254 19.0713 255.117 19.241C259.558 19.9158 262.606 19.9383 266.657 19.2937C267.825 19.1077 268.434 17.8164 267.872 16.7745C267.174 15.4787 265.821 14.6706 264.35 14.6707L263.969 14.6707C263.391 15.7462 262.255 16.4774 260.949 16.4774C259.642 16.4774 258.506 15.7462 257.928 14.6707Z"/>
</mask>
<path fill-rule="evenodd" clip-rule="evenodd" d="M257.928 14.6707L257.361 14.6707C255.88 14.6707 254.529 15.5152 253.88 16.8462C253.386 17.8617 254 19.0713 255.117 19.241C259.558 19.9158 262.606 19.9383 266.657 19.2937C267.825 19.1077 268.434 17.8164 267.872 16.7745C267.174 15.4787 265.821 14.6706 264.35 14.6707L263.969 14.6707C263.391 15.7462 262.255 16.4774 260.949 16.4774C259.642 16.4774 258.506 15.7462 257.928 14.6707Z" fill="white"/>
<path d="M257.361 14.6707L257.361 15.6707L257.361 14.6707ZM257.928 14.6707L258.809 14.1973L258.526 13.6707L257.928 13.6707L257.928 14.6707ZM253.88 16.8462L254.779 17.2843H254.779L253.88 16.8462ZM255.117 19.241L254.967 20.2297H254.967L255.117 19.241ZM266.657 19.2937L266.499 18.3061V18.3061L266.657 19.2937ZM267.872 16.7745L268.753 16.3003V16.3003L267.872 16.7745ZM264.35 14.6707L264.35 13.6707L264.35 14.6707ZM263.969 14.6707L263.969 13.6707L263.371 13.6707L263.088 14.1973L263.969 14.6707ZM257.361 15.6707L257.928 15.6707L257.928 13.6707L257.361 13.6707L257.361 15.6707ZM254.779 17.2843C255.26 16.2971 256.263 15.6707 257.361 15.6707L257.361 13.6707C255.498 13.6707 253.798 14.7333 252.982 16.4081L254.779 17.2843ZM255.267 18.2524C254.837 18.1869 254.571 17.711 254.779 17.2843L252.982 16.4081C252.2 18.0123 253.164 19.9557 254.967 20.2297L255.267 18.2524ZM266.499 18.3061C262.562 18.9328 259.619 18.9135 255.267 18.2524L254.967 20.2297C259.498 20.9182 262.65 20.9439 266.814 20.2813L266.499 18.3061ZM266.992 17.2487C267.241 17.7107 266.959 18.233 266.499 18.3061L266.814 20.2813C268.692 19.9824 269.626 17.9221 268.753 16.3003L266.992 17.2487ZM264.35 15.6707C265.454 15.6706 266.468 16.2767 266.992 17.2487L268.753 16.3003C267.88 14.6806 266.189 13.6706 264.35 13.6707L264.35 15.6707ZM263.969 15.6707L264.35 15.6707L264.35 13.6707L263.969 13.6707L263.969 15.6707ZM263.088 14.1973C262.677 14.9615 261.872 15.4774 260.949 15.4774V17.4774C262.638 17.4774 264.104 16.5309 264.85 15.144L263.088 14.1973ZM260.949 15.4774C260.025 15.4774 259.22 14.9615 258.809 14.1973L257.048 15.1441C257.793 16.5309 259.259 17.4774 260.949 17.4774V15.4774Z" fill="white" mask="url(#path-30-inside-3_445_21712)"/>
<path fill-rule="evenodd" clip-rule="evenodd" d="M266.126 5.85251C268.848 4.04025 272.117 2.98413 275.633 2.98413C279.021 2.98413 282.181 3.96533 284.842 5.65911L286.717 4.5099C283.587 2.28941 279.762 0.984131 275.633 0.984131C271.379 0.984131 267.448 2.36927 264.268 4.71313L266.126 5.85251ZM256.573 22.2887L258.813 23.6623C259.79 28.3804 262.703 32.3902 266.683 34.8248V37.1255C261.195 34.2245 257.285 28.7385 256.573 22.2887ZM284.586 37.1232C290.185 34.1617 294.141 28.5095 294.733 21.8887L292.535 23.2361C291.649 28.1368 288.684 32.3143 284.586 34.8221L284.586 37.1232Z" fill="white"/>
</g>
<defs>
<clipPath id="clip0_445_21712">
<rect width="71.899" height="76.6786" fill="white" transform="translate(123.792 2.34229)"/>
</clipPath>
<clipPath id="clip1_445_21712">
<rect width="67.0841" height="77.4777" fill="white" transform="translate(0.591797 2.01392)"/>
</clipPath>
<clipPath id="clip2_445_21712">
<rect width="49.241" height="78.1701" fill="white" transform="translate(252.122 0.984131)"/>
</clipPath>
</defs>
</svg>
