<svg width="73" height="73" viewBox="0 0 73 73" fill="none" xmlns="http://www.w3.org/2000/svg">
<g clip-path="url(#clip0_443_19853)">
<circle cx="36.0456" cy="36.5" r="35.8955" transform="rotate(-180 36.0456 36.5)" fill="white"/>
<path d="M50.6004 23.1471C47.9234 21.9188 45.0528 21.0139 42.0514 20.4956C41.9968 20.4856 41.9422 20.5106 41.914 20.5606C41.5448 21.2172 41.1359 22.0738 40.8495 22.7471C37.6213 22.2638 34.4097 22.2638 31.2477 22.7471C30.9612 22.0589 30.5374 21.2172 30.1666 20.5606C30.1384 20.5122 30.0838 20.4872 30.0292 20.4956C27.0294 21.0122 24.1588 21.9172 21.4802 23.1471C21.457 23.1571 21.4372 23.1738 21.424 23.1955C15.979 31.3301 14.4874 39.2648 15.2192 47.1011C15.2225 47.1394 15.244 47.1761 15.2738 47.1994C18.8662 49.8376 22.3461 51.4392 25.7613 52.5008C25.816 52.5175 25.8739 52.4975 25.9087 52.4525C26.7166 51.3492 27.4367 50.186 28.0542 48.9626C28.0906 48.891 28.0558 48.806 27.9814 48.7777C26.8391 48.3444 25.7514 47.816 24.7051 47.2161C24.6224 47.1678 24.6157 47.0494 24.6919 46.9927C24.912 46.8277 25.1323 46.6561 25.3425 46.4827C25.3806 46.4511 25.4336 46.4444 25.4783 46.4644C32.3518 49.6026 39.7933 49.6026 46.5858 46.4644C46.6305 46.4428 46.6835 46.4494 46.7232 46.4811C46.9335 46.6544 47.1536 46.8277 47.3755 46.9927C47.4516 47.0494 47.4466 47.1678 47.3639 47.2161C46.3176 47.8277 45.2299 48.3444 44.086 48.776C44.0115 48.8043 43.9784 48.891 44.0148 48.9626C44.6455 50.1842 45.3657 51.3475 46.1587 52.4508C46.1918 52.4975 46.2514 52.5175 46.306 52.5008C49.7378 51.4392 53.2177 49.8376 56.8101 47.1994C56.8416 47.1761 56.8614 47.1411 56.8648 47.1028C57.7405 38.0431 55.3979 30.1735 50.655 23.1971C50.6434 23.1738 50.6236 23.1571 50.6004 23.1471ZM29.0806 42.3296C27.0112 42.3296 25.3061 40.4297 25.3061 38.0965C25.3061 35.7632 26.9781 33.8633 29.0806 33.8633C31.1996 33.8633 32.8883 35.7799 32.8551 38.0965C32.8551 40.4297 31.1831 42.3296 29.0806 42.3296ZM43.0364 42.3296C40.967 42.3296 39.2619 40.4297 39.2619 38.0965C39.2619 35.7632 40.9339 33.8633 43.0364 33.8633C45.1555 33.8633 46.844 35.7799 46.811 38.0965C46.811 40.4297 45.1555 42.3296 43.0364 42.3296Z" fill="black"/>
</g>
<defs>
<clipPath id="clip0_443_19853">
<rect width="72" height="72" fill="white" transform="translate(0.0455933 0.5)"/>
</clipPath>
</defs>
</svg>
