<svg width="95" height="102" viewBox="0 0 95 102" fill="none" xmlns="http://www.w3.org/2000/svg">
<path d="M20.0334 19.9265L16.5728 38.4765L32.0774 52.8735L39.8297 55.3653H49.3815L57.1338 52.8735L72.7767 38.4765L68.7621 19.9265L67.6547 6.63694L65.9935 2.76081L60.4562 1.93018L52.5655 6.63694L47.2337 6.07455H42.0424L36.7841 6.63694L28.4782 1.93018L23.3562 2.76081L22.1103 5.80635L20.0334 19.9265Z" fill="white" stroke="black"/>
<mask id="path-2-inside-1_443_19800" fill="white">
<path d="M41.4737 51.7247H47.5201V53.312H41.4737V51.7247Z"/>
<path d="M65.1968 39.8636L63.335 35.0961V39.8636L53.2188 53.2363L65.1968 39.8636Z"/>
<path d="M23.797 39.8636L25.6588 35.0961V39.8636L35.7751 53.2363L23.797 39.8636Z"/>
<path d="M60.1951 0.443604L52.1716 6.37401V9.86257L60.1951 3.00184H65.5444L66.5909 6.37401L65.5444 17.3047L68.9166 20.2118L68.1026 6.37401L65.5444 1.95528L60.1951 0.443604Z"/>
<path d="M28.6358 0.443604L36.6593 6.37401V9.86257L28.6358 3.00184H23.2865L22.24 6.37401L23.2865 17.3047L19.9143 20.2118L20.7283 6.37401L23.2865 1.95528L28.6358 0.443604Z"/>
<path d="M42.0385 40.9264L44.5411 42.0093L47.2017 40.9264L50.0093 42.0093L48.8574 46.8521L46.3206 47.4738L45.3622 50.7369H44.1475L42.8139 47.4738L40.3028 46.8521L39.1589 42.0093L42.0385 40.9264Z"/>
</mask>
<path d="M41.4737 51.7247H47.5201V53.312H41.4737V51.7247Z" fill="black"/>
<path d="M65.1968 39.8636L63.335 35.0961V39.8636L53.2188 53.2363L65.1968 39.8636Z" fill="black"/>
<path d="M23.797 39.8636L25.6588 35.0961V39.8636L35.7751 53.2363L23.797 39.8636Z" fill="black"/>
<path d="M60.1951 0.443604L52.1716 6.37401V9.86257L60.1951 3.00184H65.5444L66.5909 6.37401L65.5444 17.3047L68.9166 20.2118L68.1026 6.37401L65.5444 1.95528L60.1951 0.443604Z" fill="black"/>
<path d="M28.6358 0.443604L36.6593 6.37401V9.86257L28.6358 3.00184H23.2865L22.24 6.37401L23.2865 17.3047L19.9143 20.2118L20.7283 6.37401L23.2865 1.95528L28.6358 0.443604Z" fill="black"/>
<path d="M42.0385 40.9264L44.5411 42.0093L47.2017 40.9264L50.0093 42.0093L48.8574 46.8521L46.3206 47.4738L45.3622 50.7369H44.1475L42.8139 47.4738L40.3028 46.8521L39.1589 42.0093L42.0385 40.9264Z" fill="black"/>
<path d="M28.8703 40.3149C28.8945 40.3149 28.9187 40.3149 28.9429 40.3149C28.967 40.3149 28.9912 40.3149 29.0153 40.3149C29.0394 40.3149 29.0636 40.3149 29.0876 40.3149C29.1117 40.3149 29.1358 40.3149 29.1598 40.3149C29.1839 40.3149 29.2079 40.3149 29.2319 40.3149C29.2559 40.3149 29.2799 40.3149 29.3039 40.3149C29.3279 40.3149 29.3518 40.3149 29.3757 40.3149C29.3996 40.3149 29.4236 40.3149 29.4474 40.3149C29.4713 40.3149 29.4952 40.3149 29.519 40.3149C29.5429 40.3149 29.5667 40.3149 29.5905 40.3149C29.6143 40.3149 29.6381 40.3149 29.6619 40.3149C29.6856 40.3149 29.7094 40.3149 29.7331 40.3149C29.7568 40.3149 29.7805 40.3149 29.8042 40.3149C29.8279 40.3149 29.8516 40.3149 29.8752 40.3149C29.8989 40.3149 29.9225 40.3149 29.9461 40.3149C29.9697 40.3149 29.9933 40.3149 30.0169 40.3149C30.0404 40.3149 30.064 40.3149 30.0875 40.3149C30.111 40.3149 30.1346 40.3149 30.158 40.3149C30.1815 40.3149 30.205 40.3149 30.2285 40.3149C30.2519 40.3149 30.2753 40.3149 30.2988 40.3149C30.3222 40.3149 30.3456 40.3149 30.3689 40.3149C30.3923 40.3149 30.4157 40.3149 30.439 40.3149C30.4623 40.3149 30.4857 40.3149 30.509 40.3149C30.5323 40.3149 30.5555 40.3149 30.5788 40.3149C30.6021 40.3149 30.6253 40.3149 30.6485 40.3149C30.6718 40.3149 30.695 40.3149 30.7182 40.3149C30.7413 40.3149 30.7645 40.3149 30.7877 40.3149C30.8108 40.3149 30.8339 40.3149 30.8571 40.3149C30.8802 40.3149 30.9033 40.3149 30.9263 40.3149C30.9494 40.3149 30.9725 40.3149 30.9955 40.3149C31.0185 40.3149 31.0416 40.3149 31.0646 40.3149C31.0876 40.3149 31.1106 40.3149 31.1335 40.3149C31.1565 40.3149 31.1794 40.3149 31.2024 40.3149C31.2253 40.3149 31.2482 40.3149 31.2711 40.3149C31.294 40.3149 31.3169 40.3149 31.3397 40.3149C31.3626 40.3149 31.3854 40.3149 31.4082 40.3149C31.4311 40.3149 31.4539 40.3149 31.4767 40.3149C31.4994 40.3149 31.5222 40.3149 31.545 40.3149C31.5677 40.3149 31.5904 40.3149 31.6132 40.3149C31.6359 40.3149 31.6586 40.3149 31.6813 40.3149C31.7039 40.3149 31.7266 40.3149 31.7492 40.3149C31.7719 40.3149 31.7945 40.3149 31.8171 40.3149C31.8397 40.3149 31.8623 40.3149 31.8849 40.3149C31.9075 40.3149 31.93 40.3149 31.9526 40.3149C31.9751 40.3149 31.9977 40.3149 32.0202 40.3149C32.0427 40.3149 32.0652 40.3149 32.0876 40.3149C32.1101 40.3149 32.1326 40.3149 32.155 40.3149C32.1774 40.3149 32.1999 40.3149 32.2223 40.3149C32.2447 40.3149 32.2671 40.3149 32.2894 40.3149C32.3118 40.3149 32.3342 40.3149 32.3565 40.3149C32.3788 40.3149 32.4011 40.3149 32.4235 40.3149C32.4458 40.3149 32.468 40.3149 32.4903 40.3149C32.5126 40.3149 32.5348 40.3149 32.5571 40.3149C32.5793 40.3149 32.6015 40.3149 32.6237 40.3149C32.646 40.3149 32.6681 40.3149 32.6903 40.3149C32.7125 40.3149 32.7346 40.3149 32.7568 40.3149C32.7789 40.3149 32.801 40.3149 32.8232 40.3149C32.8453 40.3149 32.8674 40.3149 32.8894 40.3149C32.9115 40.3149 32.9336 40.3149 32.9556 40.3149C32.9776 40.3149 32.9997 40.3149 33.0217 40.3149C33.0437 40.3149 33.0657 40.3149 33.0877 40.3149C33.1097 40.3149 33.1316 40.3149 33.1536 40.3149C33.1755 40.3149 33.1974 40.3149 33.2194 40.3149C33.2413 40.3149 33.2632 40.3149 33.2851 40.3149C33.307 40.3149 33.3288 40.3149 33.3507 40.3149C33.3725 40.3149 33.3944 40.3149 33.4162 40.3149C33.438 40.3149 33.4598 40.3149 33.4816 40.3149C33.5034 40.3149 33.5252 40.3149 33.547 40.3149C33.5687 40.3149 33.5905 40.3149 33.6122 40.3149C33.6339 40.3149 33.6556 40.3149 33.6773 40.3149C33.699 40.3149 33.7207 40.3149 33.7424 40.3149C33.7641 40.3149 33.7857 40.3149 33.8074 40.3149C33.829 40.3149 33.8506 40.3149 33.8723 40.3149C33.8939 40.3149 33.9155 40.3149 33.937 40.3149C33.9586 40.3149 33.9802 40.3149 34.0017 40.3149C34.0233 40.3149 34.0448 40.3149 34.0664 40.3149C34.0879 40.3149 34.1094 40.3149 34.1309 40.3149C34.1524 40.3149 34.1739 40.3149 34.1953 40.3149C34.2168 40.3149 34.2382 40.3149 34.2597 40.3149C34.2811 40.3149 34.3025 40.3149 34.3239 40.3149C34.3453 40.3149 34.3667 40.3149 34.3881 40.3149C34.4095 40.3149 34.4309 40.3149 34.4522 40.3149C34.4736 40.3149 34.4949 40.3149 34.5162 40.3149C34.5375 40.3149 34.5589 40.3149 34.5802 40.3149C34.6014 40.3149 34.6227 40.3149 34.644 40.3149C34.6653 40.3149 34.6865 40.3149 34.7078 40.3149C34.729 40.3149 34.7502 40.3149 34.7714 40.3149C34.7926 40.3149 34.8138 40.3149 34.835 40.3149C34.8562 40.3149 34.8774 40.3149 34.8985 40.3149C34.9197 40.3149 34.9408 40.3149 34.962 40.3149C34.9831 40.3149 35.0042 40.3149 35.0253 40.3149C35.0464 40.3149 35.0675 40.3149 35.0886 40.3149C35.1097 40.3149 35.1307 40.3149 35.1518 40.3149C35.1728 40.3149 35.1939 40.3149 35.2149 40.3149C35.2359 40.3149 35.2569 40.3149 35.2779 40.3149C35.2989 40.3149 35.3199 40.3149 35.3409 40.3149C35.3618 40.3149 35.3828 40.3149 35.4037 40.3149C35.4247 40.3149 35.4456 40.3149 35.4665 40.3149C35.4875 40.3149 35.5084 40.3149 35.5293 40.3149C35.5502 40.3149 35.571 40.3149 35.5919 40.3149C35.6128 40.3149 35.6336 40.3149 35.6545 40.3149C35.6753 40.3149 35.6962 40.3149 35.717 40.3149C35.7378 40.3149 35.7586 40.3149 35.7794 40.3149C35.8002 40.3149 35.821 40.3149 35.8417 40.3149C35.8625 40.3149 35.8833 40.3149 35.904 40.3149C35.9247 40.3149 35.9455 40.3149 35.9662 40.3149C35.9869 40.3149 36.0076 40.3149 36.0283 40.3149C36.049 40.3149 36.0697 40.3149 36.0904 40.3149C36.111 40.3149 36.1317 40.3149 36.1524 40.3149C36.173 40.3149 36.1936 40.3149 36.2143 40.3149C36.2349 40.3149 36.2555 40.3149 36.2761 40.3149C36.2967 40.3149 36.3173 40.3149 36.3379 40.3149C36.3584 40.3149 36.379 40.3149 36.3996 40.3149C36.4201 40.3149 36.4407 40.3149 36.4612 40.3149C36.4817 40.3149 36.5022 40.3149 36.5227 40.3149C36.5432 40.3149 36.5637 40.3149 36.5842 40.3149C36.6047 40.3149 36.6252 40.3149 36.6456 40.3149C36.6661 40.3149 36.6866 40.3149 36.707 40.3149C36.7274 40.3149 36.7479 40.3149 36.7683 40.3149C36.7887 40.3149 36.8091 40.3149 36.8295 40.3149C36.8499 40.3149 36.8703 40.3149 36.8906 40.3149C36.911 40.3149 36.9314 40.3149 36.9517 40.3149C36.9721 40.3149 36.9924 40.3149 37.0128 40.3149C37.0331 40.3149 37.0534 40.3149 37.0737 40.3149C37.094 40.3149 37.1143 40.3149 37.1346 40.3149C37.1549 40.3149 37.1752 40.3149 37.1954 40.3149C37.2157 40.3149 37.236 40.3149 37.2562 40.3149C37.2764 40.3149 37.2967 40.3149 37.3169 40.3149C37.3371 40.3149 37.3573 40.3149 37.3775 40.3149C37.3977 40.3149 37.4179 40.3149 37.4381 40.3149C37.4583 40.3149 37.4785 40.3149 37.4986 40.3149C37.5188 40.3149 37.5389 40.3149 37.5591 40.3149C37.5792 40.3149 37.5994 40.3149 37.6195 40.3149C37.6396 40.3149 37.6597 40.3149 37.6798 40.3149C37.6999 40.3149 37.72 40.3149 37.7401 40.3149C37.7602 40.3149 37.7802 40.3149 37.8003 40.3149C37.8204 40.3149 37.8404 40.3149 37.8605 40.3149C37.8805 40.3149 37.9005 40.3149 37.9206 40.3149C37.9406 40.3149 37.9606 40.3149 37.9806 40.3149C38.0006 40.3149 38.0206 40.3149 38.0406 40.3149C38.0606 40.3149 38.0806 40.3149 38.1005 40.3149C38.1205 40.3149 38.1404 40.3149 38.1604 40.3149C38.1803 40.3149 38.2003 40.3149 38.2202 40.3149C38.2401 40.3149 38.2601 40.3149 38.28 40.3149C38.2999 40.3149 38.3198 40.3149 38.3397 40.3149C38.3596 40.3149 38.3795 40.3149 38.3993 40.3149C38.4192 40.3149 38.4391 40.3149 38.4589 40.3149C38.4788 40.3149 38.4986 40.3149 38.5185 40.3149C38.5383 40.3149 38.5582 40.3149 38.578 40.3149C38.5978 40.3149 38.6176 40.3149 38.6374 40.3149C38.6572 40.3149 38.677 40.3149 38.6968 40.3149C38.7166 40.3149 38.7364 40.3149 38.7562 40.3149C38.7759 40.3149 38.7957 40.3149 38.8154 40.3149C38.8352 40.3149 38.8549 40.3149 38.8747 40.3149C38.8944 40.3149 38.9142 40.3149 38.9339 40.3149C38.9536 40.3149 38.9733 40.3149 38.993 40.3149C39.0127 40.3149 39.0324 40.3149 39.0521 40.3149C39.0718 40.3149 39.0915 40.3149 39.1112 40.3149C39.1308 40.3149 39.1505 40.3149 39.1701 40.3149C39.1898 40.3149 39.2095 40.3149 39.2291 40.3149C39.2487 40.3149 39.2684 40.3149 39.288 40.3149C39.3076 40.3149 39.3272 40.3149 39.3469 40.3149C39.3665 40.3149 39.3861 40.3149 39.4057 40.3149C39.4253 40.3149 39.4448 40.3149 39.4644 40.3149C39.484 40.3149 39.5036 40.3149 39.5231 40.3149C39.5427 40.3149 39.5623 40.3149 39.5818 40.3149C39.6014 40.3149 39.6209 40.3149 39.6405 40.3149C39.66 40.3149 39.6795 40.3149 39.699 40.3149C39.7186 40.3149 39.7381 40.3149 39.7576 40.3149C39.7771 40.3149 39.7966 40.3149 39.8161 40.3149C39.8356 40.3149 39.8551 40.3149 39.8746 40.3149C39.894 40.3149 39.9135 40.3149 39.933 40.3149C39.9524 40.3149 39.9719 40.3149 39.9914 40.3149C40.0108 40.3149 40.0303 40.3149 40.0497 40.3149C40.0691 40.3149 40.0886 40.3149 40.108 40.3149C40.1274 40.3149 40.1468 40.3149 40.1663 40.3149C40.1857 40.3149 40.2051 40.3149 40.2245 40.3149C40.2439 40.3149 40.2633 40.3149 40.2827 40.3149C40.302 40.3149 40.3214 40.3149 40.3408 40.3149C40.3602 40.3149 40.3795 40.3149 40.3989 40.3149C40.4183 40.3149 40.4376 40.3149 40.457 40.3149C40.4763 40.3149 40.4957 40.3149 40.515 40.3149C40.5343 40.3149 40.5537 40.3149 40.573 40.3149C40.5923 40.3149 40.6116 40.3149 40.631 40.3149C40.6503 40.3149 40.6696 40.3149 40.6889 40.3149C40.7082 40.3149 40.7275 40.3149 40.7468 40.3149C40.7661 40.3149 40.7854 40.3149 40.8046 40.3149C40.8239 40.3149 40.8432 40.3149 40.8625 40.3149C40.8817 40.3149 40.901 40.3149 40.9202 40.3149C40.9395 40.3149 40.9588 40.3149 40.978 40.3149C40.9973 40.3149 41.0165 40.3149 41.0357 40.3149C41.055 40.3149 41.0742 40.3149 41.0934 40.3149C41.1127 40.3149 41.1319 40.3149 41.1511 40.3149C41.1703 40.3149 41.1895 40.3149 41.2087 40.3149C41.2279 40.3149 41.2471 40.3149 41.2663 40.3149C41.2855 40.3149 41.3047 40.3149 41.3239 40.3149C41.3431 40.3149 41.3623 40.3149 41.3814 40.3149C41.4006 40.3149 41.4198 40.3149 41.439 40.3149C41.4581 40.3149 41.4773 40.3149 41.4964 40.3149C41.5156 40.3149 41.5348 40.3149 41.5539 40.3149C41.573 40.3149 41.5922 40.3149 41.6113 40.3149C41.6305 40.3149 41.6496 40.3149 41.6687 40.3149C41.6879 40.3149 41.707 40.3149 41.7261 40.3149C41.7452 40.3149 41.7644 40.3149 41.7835 40.3149C41.8026 40.3149 41.8217 40.3149 41.8408 40.3149C41.8599 40.3149 41.879 40.3149 41.8981 40.3149C41.9172 40.3149 41.9363 40.3149 41.9554 40.3149C41.9745 40.3149 41.9935 40.3149 42.0126 40.3149C42.0317 40.3149 42.0508 40.3149 42.0699 40.3149C42.0889 40.3149 42.108 40.3149 42.1271 40.3149C42.1461 40.3149 42.1652 40.3149 42.1843 40.3149C42.2033 40.3149 42.2224 40.3149 42.2414 40.3149C42.2605 40.3149 42.2795 40.3149 42.2986 40.3149C42.3176 40.3149 42.3366 40.3149 42.3557 40.3149C42.3747 40.3149 42.3937 40.3149 42.4128 40.3149C42.4318 40.3149 42.4508 40.3149 42.4699 40.3149C42.4889 40.3149 42.5079 40.3149 42.5269 40.3149C42.5459 40.3149 42.565 40.3149 42.584 40.3149C42.603 40.3149 42.622 40.3149 42.641 40.3149C42.66 40.3149 42.679 40.3149 42.698 40.3149C42.717 40.3149 42.736 40.3149 42.755 40.3149C42.774 40.3149 42.793 40.3149 42.812 40.3149C42.8309 40.3149 42.8499 40.3149 42.8689 40.3149C42.8879 40.3149 42.9069 40.3149 42.9258 40.3149C42.9448 40.3149 42.9638 40.3149 42.9828 40.3149C43.0017 40.3149 43.0207 40.3149 43.0397 40.3149C43.0586 40.3149 43.0776 40.3149 43.0966 40.3149C43.1155 40.3149 43.1345 40.3149 43.1535 40.3149C43.1724 40.3149 43.1914 40.3149 43.2103 40.3149C43.2293 40.3149 43.2482 40.3149 43.2672 40.3149C43.2861 40.3149 43.3051 40.3149 43.324 40.3149C43.343 40.3149 43.3619 40.3149 43.3808 40.3149C43.3998 40.3149 43.4187 40.3149 43.4377 40.3149C43.4566 40.3149 43.4755 40.3149 43.4945 40.3149C43.5134 40.3149 43.5323 40.3149 43.5512 40.3149C43.5702 40.3149 43.5891 40.3149 43.608 40.3149C43.627 40.3149 43.6459 40.3149 43.6648 40.3149C43.6837 40.3149 43.7027 40.3149 43.7216 40.3149C43.7405 40.3149 43.7594 40.3149 43.7783 40.3149C43.7972 40.3149 43.8162 40.3149 43.8351 40.3149C43.854 40.3149 43.8729 40.3149 43.8918 40.3149C43.9107 40.3149 43.9296 40.3149 43.9485 40.3149C43.9675 40.3149 43.9864 40.3149 44.0053 40.3149C44.0242 40.3149 44.0431 40.3149 44.062 40.3149C44.0809 40.3149 44.0998 40.3149 44.1187 40.3149C44.1376 40.3149 44.1565 40.3149 44.1754 40.3149C44.1943 40.3149 44.2132 40.3149 44.2321 40.3149C44.251 40.3149 44.2699 40.3149 44.2888 40.3149C44.3077 40.3149 44.3266 40.3149 44.3455 40.3149C44.3644 40.3149 44.3833 40.3149 44.4022 40.3149C44.4211 40.3149 44.44 40.3149 44.4589 40.3149C44.4778 40.3149 44.4967 40.3149 44.5156 40.3149C44.5345 40.3149 44.5534 40.3149 44.5723 40.3149C44.5912 40.3149 44.6101 40.3149 44.6289 40.3149C44.6478 40.3149 44.6667 40.3149 44.6856 40.3149C44.7045 40.3149 44.7234 40.3149 44.7423 40.3149C44.7612 40.3149 44.7801 40.3149 44.799 40.3149C44.8179 40.3149 44.8368 40.3149 44.8557 40.3149C44.8746 40.3149 44.8935 40.3149 44.9124 40.3149C44.9312 40.3149 44.9501 40.3149 44.969 40.3149C44.9879 40.3149 45.0068 40.3149 45.0257 40.3149C45.0446 40.3149 45.0635 40.3149 45.0824 40.3149C45.1013 40.3149 45.1202 40.3149 45.1391 40.3149C45.158 40.3149 45.1769 40.3149 45.1958 40.3149C45.2147 40.3149 45.2336 40.3149 45.2525 40.3149C45.2714 40.3149 45.2903 40.3149 45.3092 40.3149C45.3281 40.3149 45.347 40.3149 45.3659 40.3149C45.3848 40.3149 45.4037 40.3149 45.4226 40.3149C45.4415 40.3149 45.4604 40.3149 45.4793 40.3149C45.4983 40.3149 45.5172 40.3149 45.5361 40.3149C45.555 40.3149 45.5739 40.3149 45.5928 40.3149C45.6117 40.3149 45.6306 40.3149 45.6495 40.3149C45.6685 40.3149 45.6874 40.3149 45.7063 40.3149C45.7252 40.3149 45.7441 40.3149 45.763 40.3149C45.782 40.3149 45.8009 40.3149 45.8198 40.3149C45.8387 40.3149 45.8577 40.3149 45.8766 40.3149C45.8955 40.3149 45.9144 40.3149 45.9334 40.3149C45.9523 40.3149 45.9712 40.3149 45.9902 40.3149C46.0091 40.3149 46.028 40.3149 46.047 40.3149C46.0659 40.3149 46.0848 40.3149 46.1038 40.3149C46.1227 40.3149 46.1417 40.3149 46.1606 40.3149C46.1796 40.3149 46.1985 40.3149 46.2174 40.3149C46.2364 40.3149 46.2553 40.3149 46.2743 40.3149C46.2933 40.3149 46.3122 40.3149 46.3312 40.3149C46.3501 40.3149 46.3691 40.3149 46.388 40.3149C46.407 40.3149 46.426 40.3149 46.4449 40.3149C46.4639 40.3149 46.4829 40.3149 46.5018 40.3149C46.5208 40.3149 46.5398 40.3149 46.5588 40.3149C46.5777 40.3149 46.5967 40.3149 46.6157 40.3149C46.6347 40.3149 46.6537 40.3149 46.6727 40.3149C46.6917 40.3149 46.7106 40.3149 46.7296 40.3149C46.7486 40.3149 46.7676 40.3149 46.7866 40.3149C46.8056 40.3149 46.8246 40.3149 46.8436 40.3149C46.8626 40.3149 46.8816 40.3149 46.9007 40.3149C46.9197 40.3149 46.9387 40.3149 46.9577 40.3149C46.9767 40.3149 46.9957 40.3149 47.0148 40.3149C47.0338 40.3149 47.0528 40.3149 47.0718 40.3149C47.0909 40.3149 47.1099 40.3149 47.1289 40.3149C47.148 40.3149 47.167 40.3149 47.1861 40.3149C47.2051 40.3149 47.2241 40.3149 47.2432 40.3149C47.2623 40.3149 47.2813 40.3149 47.3004 40.3149C47.3194 40.3149 47.3385 40.3149 47.3575 40.3149C47.3766 40.3149 47.3957 40.3149 47.4148 40.3149C47.4338 40.3149 47.4529 40.3149 47.472 40.3149C47.4911 40.3149 47.5102 40.3149 47.5292 40.3149C47.5483 40.3149 47.5674 40.3149 47.5865 40.3149C47.6056 40.3149 47.6247 40.3149 47.6438 40.3149C47.6629 40.3149 47.682 40.3149 47.7011 40.3149C47.7203 40.3149 47.7394 40.3149 47.7585 40.3149C47.7776 40.3149 47.7967 40.3149 47.8159 40.3149C47.835 40.3149 47.8541 40.3149 47.8733 40.3149C47.8924 40.3149 47.9116 40.3149 47.9307 40.3149C47.9499 40.3149 47.969 40.3149 47.9882 40.3149C48.0073 40.3149 48.0265 40.3149 48.0457 40.3149C48.0648 40.3149 48.084 40.3149 48.1032 40.3149C48.1224 40.3149 48.1415 40.3149 48.1607 40.3149C48.1799 40.3149 48.1991 40.3149 48.2183 40.3149C48.2375 40.3149 48.2567 40.3149 48.2759 40.3149C48.2951 40.3149 48.3143 40.3149 48.3335 40.3149C48.3527 40.3149 48.372 40.3149 48.3912 40.3149C48.4104 40.3149 48.4296 40.3149 48.4489 40.3149C48.4681 40.3149 48.4874 40.3149 48.5066 40.3149C48.5259 40.3149 48.5451 40.3149 48.5644 40.3149C48.5836 40.3149 48.6029 40.3149 48.6222 40.3149C48.6414 40.3149 48.6607 40.3149 48.68 40.3149C48.6993 40.3149 48.7185 40.3149 48.7378 40.3149C48.7571 40.3149 48.7764 40.3149 48.7957 40.3149C48.815 40.3149 48.8343 40.3149 48.8537 40.3149C48.873 40.3149 48.8923 40.3149 48.9116 40.3149C48.9309 40.3149 48.9503 40.3149 48.9696 40.3149C48.989 40.3149 49.0083 40.3149 49.0276 40.3149C49.047 40.3149 49.0664 40.3149 49.0857 40.3149C49.1051 40.3149 49.1244 40.3149 49.1438 40.3149C49.1632 40.3149 49.1826 40.3149 49.202 40.3149C49.2214 40.3149 49.2407 40.3149 49.2601 40.3149C49.2795 40.3149 49.299 40.3149 49.3184 40.3149C49.3378 40.3149 49.3572 40.3149 49.3766 40.3149C49.3961 40.3149 49.4155 40.3149 49.4349 40.3149C49.4544 40.3149 49.4738 40.3149 49.4933 40.3149C49.5127 40.3149 49.5322 40.3149 49.5516 40.3149C49.5711 40.3149 49.5906 40.3149 49.6101 40.3149C49.6295 40.3149 49.649 40.3149 49.6685 40.3149C49.688 40.3149 49.7075 40.3149 49.727 40.3149C49.7465 40.3149 49.766 40.3149 49.7856 40.3149C49.8051 40.3149 49.8246 40.3149 49.8442 40.3149C49.8637 40.3149 49.8832 40.3149 49.9028 40.3149C49.9223 40.3149 49.9419 40.3149 49.9615 40.3149C49.981 40.3149 50.0006 40.3149 50.0202 40.3149C50.0398 40.3149 50.0594 40.3149 50.0789 40.3149C50.0985 40.3149 50.1181 40.3149 50.1378 40.3149C50.1574 40.3149 50.177 40.3149 50.1966 40.3149C50.2162 40.3149 50.2359 40.3149 50.2555 40.3149C50.2752 40.3149 50.2948 40.3149 50.3145 40.3149C50.3341 40.3149 50.3538 40.3149 50.3735 40.3149C50.3931 40.3149 50.4128 40.3149 50.4325 40.3149C50.4522 40.3149 50.4719 40.3149 50.4916 40.3149C50.5113 40.3149 50.531 40.3149 50.5507 40.3149C50.5705 40.3149 50.5902 40.3149 50.6099 40.3149C50.6297 40.3149 50.6494 40.3149 50.6692 40.3149C50.6889 40.3149 50.7087 40.3149 50.7285 40.3149C50.7482 40.3149 50.768 40.3149 50.7878 40.3149C50.8076 40.3149 50.8274 40.3149 50.8472 40.3149C50.867 40.3149 50.8868 40.3149 50.9066 40.3149C50.9265 40.3149 50.9463 40.3149 50.9661 40.3149C50.986 40.3149 51.0058 40.3149 51.0257 40.3149C51.0455 40.3149 51.0654 40.3149 51.0853 40.3149C51.1052 40.3149 51.125 40.3149 51.1449 40.3149C51.1648 40.3149 51.1847 40.3149 51.2046 40.3149C51.2245 40.3149 51.2445 40.3149 51.2644 40.3149C51.2843 40.3149 51.3043 40.3149 51.3242 40.3149C51.3442 40.3149 51.3641 40.3149 51.3841 40.3149C51.4041 40.3149 51.424 40.3149 51.444 40.3149C51.464 40.3149 51.484 40.3149 51.504 40.3149C51.524 40.3149 51.544 40.3149 51.564 40.3149C51.5841 40.3149 51.6041 40.3149 51.6241 40.3149C51.6442 40.3149 51.6642 40.3149 51.6843 40.3149C51.7044 40.3149 51.7244 40.3149 51.7445 40.3149C51.7646 40.3149 51.7847 40.3149 51.8048 40.3149C51.8249 40.3149 51.845 40.3149 51.8651 40.3149C51.8853 40.3149 51.9054 40.3149 51.9255 40.3149C51.9457 40.3149 51.9658 40.3149 51.986 40.3149C52.0061 40.3149 52.0263 40.3149 52.0465 40.3149C52.0667 40.3149 52.0869 40.3149 52.1071 40.3149C52.1273 40.3149 52.1475 40.3149 52.1677 40.3149C52.1879 40.3149 52.2082 40.3149 52.2284 40.3149C52.2487 40.3149 52.2689 40.3149 52.2892 40.3149C52.3094 40.3149 52.3297 40.3149 52.35 40.3149C52.3703 40.3149 52.3906 40.3149 52.4109 40.3149C52.4312 40.3149 52.4515 40.3149 52.4719 40.3149C52.4922 40.3149 52.5125 40.3149 52.5329 40.3149C52.5532 40.3149 52.5736 40.3149 52.594 40.3149C52.6143 40.3149 52.6347 40.3149 52.6551 40.3149C52.6755 40.3149 52.6959 40.3149 52.7163 40.3149C52.7368 40.3149 52.7572 40.3149 52.7776 40.3149C52.7981 40.3149 52.8185 40.3149 52.839 40.3149C52.8594 40.3149 52.8799 40.3149 52.9004 40.3149C52.9209 40.3149 52.9414 40.3149 52.9619 40.3149C52.9824 40.3149 53.0029 40.3149 53.0234 40.3149C53.044 40.3149 53.0645 40.3149 53.0851 40.3149C53.1056 40.3149 53.1262 40.3149 53.1468 40.3149C53.1673 40.3149 53.1879 40.3149 53.2085 40.3149C53.2291 40.3149 53.2497 40.3149 53.2704 40.3149C53.291 40.3149 53.3116 40.3149 53.3323 40.3149C53.3529 40.3149 53.3736 40.3149 53.3942 40.3149C53.4149 40.3149 53.4356 40.3149 53.4563 40.3149C53.477 40.3149 53.4977 40.3149 53.5184 40.3149C53.5391 40.3149 53.5599 40.3149 53.5806 40.3149C53.6014 40.3149 53.6221 40.3149 53.6429 40.3149C53.6637 40.3149 53.6844 40.3149 53.7052 40.3149C53.726 40.3149 53.7468 40.3149 53.7676 40.3149C53.7885 40.3149 53.8093 40.3149 53.8301 40.3149C53.851 40.3149 53.8718 40.3149 53.8927 40.3149C53.9136 40.3149 53.9345 40.3149 53.9553 40.3149C53.9762 40.3149 53.9972 40.3149 54.0181 40.3149C54.039 40.3149 54.0599 40.3149 54.0809 40.3149C54.1018 40.3149 54.1228 40.3149 54.1437 40.3149C54.1647 40.3149 54.1857 40.3149 54.2067 40.3149C54.2277 40.3149 54.2487 40.3149 54.2697 40.3149C54.2908 40.3149 54.3118 40.3149 54.3328 40.3149C54.3539 40.3149 54.375 40.3149 54.396 40.3149C54.4171 40.3149 54.4382 40.3149 54.4593 40.3149C54.4804 40.3149 54.5015 40.3149 54.5226 40.3149C54.5438 40.3149 54.5649 40.3149 54.5861 40.3149C54.6072 40.3149 54.6284 40.3149 54.6496 40.3149C54.6708 40.3149 54.692 40.3149 54.7132 40.3149C54.7344 40.3149 54.7556 40.3149 54.7769 40.3149C54.7981 40.3149 54.8194 40.3149 54.8406 40.3149C54.8619 40.3149 54.8832 40.3149 54.9045 40.3149C54.9258 40.3149 54.9471 40.3149 54.9684 40.3149C54.9897 40.3149 55.011 40.3149 55.0324 40.3149C55.0537 40.3149 55.0751 40.3149 55.0965 40.3149C55.1179 40.3149 55.1393 40.3149 55.1607 40.3149C55.1821 40.3149 55.2035 40.3149 55.2249 40.3149C55.2464 40.3149 55.2678 40.3149 55.2893 40.3149C55.3108 40.3149 55.3322 40.3149 55.3537 40.3149C55.3752 40.3149 55.3967 40.3149 55.4183 40.3149C55.4398 40.3149 55.4613 40.3149 55.4829 40.3149C55.5044 40.3149 55.526 40.3149 55.5476 40.3149C55.5692 40.3149 55.5908 40.3149 55.6124 40.3149C55.634 40.3149 55.6556 40.3149 55.6772 40.3149C55.6989 40.3149 55.7205 40.3149 55.7422 40.3149C55.7639 40.3149 55.7856 40.3149 55.8073 40.3149C55.829 40.3149 55.8507 40.3149 55.8724 40.3149C55.8942 40.3149 55.9159 40.3149 55.9377 40.3149C55.9594 40.3149 55.9812 40.3149 56.003 40.3149C56.0248 40.3149 56.0466 40.3149 56.0684 40.3149C56.0902 40.3149 56.1121 40.3149 56.1339 40.3149C56.1558 40.3149 56.1777 40.3149 56.1995 40.3149C56.2214 40.3149 56.2433 40.3149 56.2653 40.3149C56.2872 40.3149 56.3091 40.3149 56.3311 40.3149C56.353 40.3149 56.375 40.3149 56.3969 40.3149C56.4189 40.3149 56.4409 40.3149 56.4629 40.3149C56.4849 40.3149 56.507 40.3149 56.529 40.3149C56.5511 40.3149 56.5731 40.3149 56.5952 40.3149C56.6173 40.3149 56.6394 40.3149 56.6615 40.3149C56.6836 40.3149 56.7057 40.3149 56.7278 40.3149C56.75 40.3149 56.7721 40.3149 56.7943 40.3149C56.8165 40.3149 56.8387 40.3149 56.8609 40.3149C56.8831 40.3149 56.9053 40.3149 56.9275 40.3149C56.9498 40.3149 56.972 40.3149 56.9943 40.3149C57.0166 40.3149 57.0389 40.3149 57.0612 40.3149C57.0835 40.3149 57.1058 40.3149 57.1281 40.3149C57.1505 40.3149 57.1728 40.3149 57.1952 40.3149C57.2176 40.3149 57.24 40.3149 57.2624 40.3149C57.2848 40.3149 57.3072 40.3149 57.3296 40.3149C57.3521 40.3149 57.3745 40.3149 57.397 40.3149C57.4195 40.3149 57.442 40.3149 57.4645 40.3149C57.487 40.3149 57.5095 40.3149 57.532 40.3149C57.5546 40.3149 57.5771 40.3149 57.5997 40.3149C57.6223 40.3149 57.6449 40.3149 57.6675 40.3149C57.6901 40.3149 57.7127 40.3149 57.7354 40.3149C57.758 40.3149 57.7807 40.3149 57.8034 40.3149C57.826 40.3149 57.8487 40.3149 57.8715 40.3149C57.8942 40.3149 57.9169 40.3149 57.9397 40.3149C57.9624 40.3149 57.9852 40.3149 58.008 40.3149C58.0307 40.3149 58.0535 40.3149 58.0764 40.3149C58.0992 40.3149 58.122 40.3149 58.1449 40.3149C58.1677 40.3149 58.1906 40.3149 58.2135 40.3149C58.2364 40.3149 58.2593 40.3149 58.2822 40.3149C58.3052 40.3149 58.3281 40.3149 58.3511 40.3149C58.3741 40.3149 58.397 40.3149 58.42 40.3149C58.443 40.3149 58.4661 40.3149 58.4891 40.3149C58.5121 40.3149 58.5352 40.3149 58.5583 40.3149C58.5814 40.3149 58.6045 40.3149 58.6276 40.3149C58.6507 40.3149 58.6738 40.3149 58.697 40.3149C58.7201 40.3149 58.7433 40.3149 58.7665 40.3149C58.7896 40.3149 58.8129 40.3149 58.8361 40.3149C58.8593 40.3149 58.8825 40.3149 58.9058 40.3149C58.9291 40.3149 58.9524 40.3149 58.9757 40.3149C58.999 40.3149 59.0223 40.3149 59.0456 40.3149C59.0689 40.3149 59.0923 40.3149 59.1157 40.3149C59.1391 40.3149 59.1624 40.3149 59.1859 40.3149C59.2093 40.3149 59.2327 40.3149 59.2562 40.3149C59.2796 40.3149 59.3031 40.3149 59.3266 40.3149C59.3501 40.3149 59.3736 40.3149 59.3971 40.3149C59.4206 40.3149 59.4442 40.3149 59.4678 40.3149C59.4913 40.3149 59.5149 40.3149 59.5385 40.3149C59.5621 40.3149 59.5858 40.3149 59.6094 40.3149C59.633 40.3149 59.6567 40.3149 59.6804 40.3149C59.7041 40.3149 59.7278 40.3149 59.7515 40.3149C59.7752 40.3149 59.799 40.3149 59.8228 40.3149C59.8465 40.3149 59.8703 40.3149 59.8941 40.3149C59.9179 40.3149 59.9417 40.3149 59.9656 40.3149C59.9894 40.3149 60.0133 40.3149 60.0372 40.3149C60.0611 40.3149 60.085 40.3149 60.1089 40.3149C60.1328 40.3149 60.1568 40.3149 60.1807 40.3149C60.2047 40.3149 60.2287 40.3149 60.2527 40.3149C60.2767 40.3149 60.3007 40.3149 60.3248 40.3149C60.3488 40.3149 60.3729 40.3149 60.397 40.3149C60.4211 40.3149 60.4452 40.3149 60.4693 40.3149C60.4934 40.3149 60.5176 40.3149 60.5418 40.3149C60.5659 40.3149 60.5901 40.3149 60.6143 40.3149V20.3149C60.5901 20.3149 60.5659 20.3149 60.5418 20.3149C60.5176 20.3149 60.4934 20.3149 60.4693 20.3149C60.4452 20.3149 60.4211 20.3149 60.397 20.3149C60.3729 20.3149 60.3488 20.3149 60.3248 20.3149C60.3007 20.3149 60.2767 20.3149 60.2527 20.3149C60.2287 20.3149 60.2047 20.3149 60.1807 20.3149C60.1568 20.3149 60.1328 20.3149 60.1089 20.3149C60.085 20.3149 60.0611 20.3149 60.0372 20.3149C60.0133 20.3149 59.9894 20.3149 59.9656 20.3149C59.9417 20.3149 59.9179 20.3149 59.8941 20.3149C59.8703 20.3149 59.8465 20.3149 59.8228 20.3149C59.799 20.3149 59.7752 20.3149 59.7515 20.3149C59.7278 20.3149 59.7041 20.3149 59.6804 20.3149C59.6567 20.3149 59.633 20.3149 59.6094 20.3149C59.5858 20.3149 59.5621 20.3149 59.5385 20.3149C59.5149 20.3149 59.4913 20.3149 59.4678 20.3149C59.4442 20.3149 59.4206 20.3149 59.3971 20.3149C59.3736 20.3149 59.3501 20.3149 59.3266 20.3149C59.3031 20.3149 59.2796 20.3149 59.2562 20.3149C59.2327 20.3149 59.2093 20.3149 59.1859 20.3149C59.1624 20.3149 59.1391 20.3149 59.1157 20.3149C59.0923 20.3149 59.0689 20.3149 59.0456 20.3149C59.0223 20.3149 58.999 20.3149 58.9757 20.3149C58.9524 20.3149 58.9291 20.3149 58.9058 20.3149C58.8825 20.3149 58.8593 20.3149 58.8361 20.3149C58.8129 20.3149 58.7896 20.3149 58.7665 20.3149C58.7433 20.3149 58.7201 20.3149 58.697 20.3149C58.6738 20.3149 58.6507 20.3149 58.6276 20.3149C58.6045 20.3149 58.5814 20.3149 58.5583 20.3149C58.5352 20.3149 58.5121 20.3149 58.4891 20.3149C58.4661 20.3149 58.443 20.3149 58.42 20.3149C58.397 20.3149 58.3741 20.3149 58.3511 20.3149C58.3281 20.3149 58.3052 20.3149 58.2822 20.3149C58.2593 20.3149 58.2364 20.3149 58.2135 20.3149C58.1906 20.3149 58.1677 20.3149 58.1449 20.3149C58.122 20.3149 58.0992 20.3149 58.0764 20.3149C58.0535 20.3149 58.0307 20.3149 58.008 20.3149C57.9852 20.3149 57.9624 20.3149 57.9397 20.3149C57.9169 20.3149 57.8942 20.3149 57.8715 20.3149C57.8487 20.3149 57.826 20.3149 57.8034 20.3149C57.7807 20.3149 57.758 20.3149 57.7354 20.3149C57.7127 20.3149 57.6901 20.3149 57.6675 20.3149C57.6449 20.3149 57.6223 20.3149 57.5997 20.3149C57.5771 20.3149 57.5546 20.3149 57.532 20.3149C57.5095 20.3149 57.487 20.3149 57.4645 20.3149C57.442 20.3149 57.4195 20.3149 57.397 20.3149C57.3745 20.3149 57.3521 20.3149 57.3296 20.3149C57.3072 20.3149 57.2848 20.3149 57.2624 20.3149C57.24 20.3149 57.2176 20.3149 57.1952 20.3149C57.1728 20.3149 57.1505 20.3149 57.1281 20.3149C57.1058 20.3149 57.0835 20.3149 57.0612 20.3149C57.0389 20.3149 57.0166 20.3149 56.9943 20.3149C56.972 20.3149 56.9498 20.3149 56.9275 20.3149C56.9053 20.3149 56.8831 20.3149 56.8609 20.3149C56.8387 20.3149 56.8165 20.3149 56.7943 20.3149C56.7721 20.3149 56.75 20.3149 56.7278 20.3149C56.7057 20.3149 56.6836 20.3149 56.6615 20.3149C56.6394 20.3149 56.6173 20.3149 56.5952 20.3149C56.5731 20.3149 56.5511 20.3149 56.529 20.3149C56.507 20.3149 56.4849 20.3149 56.4629 20.3149C56.4409 20.3149 56.4189 20.3149 56.3969 20.3149C56.375 20.3149 56.353 20.3149 56.3311 20.3149C56.3091 20.3149 56.2872 20.3149 56.2653 20.3149C56.2433 20.3149 56.2214 20.3149 56.1995 20.3149C56.1777 20.3149 56.1558 20.3149 56.1339 20.3149C56.1121 20.3149 56.0902 20.3149 56.0684 20.3149C56.0466 20.3149 56.0248 20.3149 56.003 20.3149C55.9812 20.3149 55.9594 20.3149 55.9377 20.3149C55.9159 20.3149 55.8942 20.3149 55.8724 20.3149C55.8507 20.3149 55.829 20.3149 55.8073 20.3149C55.7856 20.3149 55.7639 20.3149 55.7422 20.3149C55.7205 20.3149 55.6989 20.3149 55.6772 20.3149C55.6556 20.3149 55.634 20.3149 55.6124 20.3149C55.5908 20.3149 55.5692 20.3149 55.5476 20.3149C55.526 20.3149 55.5044 20.3149 55.4829 20.3149C55.4613 20.3149 55.4398 20.3149 55.4183 20.3149C55.3967 20.3149 55.3752 20.3149 55.3537 20.3149C55.3322 20.3149 55.3108 20.3149 55.2893 20.3149C55.2678 20.3149 55.2464 20.3149 55.2249 20.3149C55.2035 20.3149 55.1821 20.3149 55.1607 20.3149C55.1393 20.3149 55.1179 20.3149 55.0965 20.3149C55.0751 20.3149 55.0537 20.3149 55.0324 20.3149C55.011 20.3149 54.9897 20.3149 54.9684 20.3149C54.9471 20.3149 54.9258 20.3149 54.9045 20.3149C54.8832 20.3149 54.8619 20.3149 54.8406 20.3149C54.8194 20.3149 54.7981 20.3149 54.7769 20.3149C54.7556 20.3149 54.7344 20.3149 54.7132 20.3149C54.692 20.3149 54.6708 20.3149 54.6496 20.3149C54.6284 20.3149 54.6072 20.3149 54.5861 20.3149C54.5649 20.3149 54.5438 20.3149 54.5226 20.3149C54.5015 20.3149 54.4804 20.3149 54.4593 20.3149C54.4382 20.3149 54.4171 20.3149 54.396 20.3149C54.375 20.3149 54.3539 20.3149 54.3328 20.3149C54.3118 20.3149 54.2908 20.3149 54.2697 20.3149C54.2487 20.3149 54.2277 20.3149 54.2067 20.3149C54.1857 20.3149 54.1647 20.3149 54.1437 20.3149C54.1228 20.3149 54.1018 20.3149 54.0809 20.3149C54.0599 20.3149 54.039 20.3149 54.0181 20.3149C53.9972 20.3149 53.9762 20.3149 53.9553 20.3149C53.9345 20.3149 53.9136 20.3149 53.8927 20.3149C53.8718 20.3149 53.851 20.3149 53.8301 20.3149C53.8093 20.3149 53.7885 20.3149 53.7676 20.3149C53.7468 20.3149 53.726 20.3149 53.7052 20.3149C53.6844 20.3149 53.6637 20.3149 53.6429 20.3149C53.6221 20.3149 53.6014 20.3149 53.5806 20.3149C53.5599 20.3149 53.5391 20.3149 53.5184 20.3149C53.4977 20.3149 53.477 20.3149 53.4563 20.3149C53.4356 20.3149 53.4149 20.3149 53.3942 20.3149C53.3736 20.3149 53.3529 20.3149 53.3323 20.3149C53.3116 20.3149 53.291 20.3149 53.2704 20.3149C53.2497 20.3149 53.2291 20.3149 53.2085 20.3149C53.1879 20.3149 53.1673 20.3149 53.1468 20.3149C53.1262 20.3149 53.1056 20.3149 53.0851 20.3149C53.0645 20.3149 53.044 20.3149 53.0234 20.3149C53.0029 20.3149 52.9824 20.3149 52.9619 20.3149C52.9414 20.3149 52.9209 20.3149 52.9004 20.3149C52.8799 20.3149 52.8594 20.3149 52.839 20.3149C52.8185 20.3149 52.7981 20.3149 52.7776 20.3149C52.7572 20.3149 52.7368 20.3149 52.7163 20.3149C52.6959 20.3149 52.6755 20.3149 52.6551 20.3149C52.6347 20.3149 52.6143 20.3149 52.594 20.3149C52.5736 20.3149 52.5532 20.3149 52.5329 20.3149C52.5125 20.3149 52.4922 20.3149 52.4719 20.3149C52.4515 20.3149 52.4312 20.3149 52.4109 20.3149C52.3906 20.3149 52.3703 20.3149 52.35 20.3149C52.3297 20.3149 52.3094 20.3149 52.2892 20.3149C52.2689 20.3149 52.2487 20.3149 52.2284 20.3149C52.2082 20.3149 52.1879 20.3149 52.1677 20.3149C52.1475 20.3149 52.1273 20.3149 52.1071 20.3149C52.0869 20.3149 52.0667 20.3149 52.0465 20.3149C52.0263 20.3149 52.0061 20.3149 51.986 20.3149C51.9658 20.3149 51.9457 20.3149 51.9255 20.3149C51.9054 20.3149 51.8853 20.3149 51.8651 20.3149C51.845 20.3149 51.8249 20.3149 51.8048 20.3149C51.7847 20.3149 51.7646 20.3149 51.7445 20.3149C51.7244 20.3149 51.7044 20.3149 51.6843 20.3149C51.6642 20.3149 51.6442 20.3149 51.6241 20.3149C51.6041 20.3149 51.5841 20.3149 51.564 20.3149C51.544 20.3149 51.524 20.3149 51.504 20.3149C51.484 20.3149 51.464 20.3149 51.444 20.3149C51.424 20.3149 51.4041 20.3149 51.3841 20.3149C51.3641 20.3149 51.3442 20.3149 51.3242 20.3149C51.3043 20.3149 51.2843 20.3149 51.2644 20.3149C51.2445 20.3149 51.2245 20.3149 51.2046 20.3149C51.1847 20.3149 51.1648 20.3149 51.1449 20.3149C51.125 20.3149 51.1052 20.3149 51.0853 20.3149C51.0654 20.3149 51.0455 20.3149 51.0257 20.3149C51.0058 20.3149 50.986 20.3149 50.9661 20.3149C50.9463 20.3149 50.9265 20.3149 50.9066 20.3149C50.8868 20.3149 50.867 20.3149 50.8472 20.3149C50.8274 20.3149 50.8076 20.3149 50.7878 20.3149C50.768 20.3149 50.7482 20.3149 50.7285 20.3149C50.7087 20.3149 50.6889 20.3149 50.6692 20.3149C50.6494 20.3149 50.6297 20.3149 50.6099 20.3149C50.5902 20.3149 50.5705 20.3149 50.5507 20.3149C50.531 20.3149 50.5113 20.3149 50.4916 20.3149C50.4719 20.3149 50.4522 20.3149 50.4325 20.3149C50.4128 20.3149 50.3931 20.3149 50.3735 20.3149C50.3538 20.3149 50.3341 20.3149 50.3145 20.3149C50.2948 20.3149 50.2752 20.3149 50.2555 20.3149C50.2359 20.3149 50.2162 20.3149 50.1966 20.3149C50.177 20.3149 50.1574 20.3149 50.1378 20.3149C50.1181 20.3149 50.0985 20.3149 50.0789 20.3149C50.0594 20.3149 50.0398 20.3149 50.0202 20.3149C50.0006 20.3149 49.981 20.3149 49.9615 20.3149C49.9419 20.3149 49.9223 20.3149 49.9028 20.3149C49.8832 20.3149 49.8637 20.3149 49.8442 20.3149C49.8246 20.3149 49.8051 20.3149 49.7856 20.3149C49.766 20.3149 49.7465 20.3149 49.727 20.3149C49.7075 20.3149 49.688 20.3149 49.6685 20.3149C49.649 20.3149 49.6295 20.3149 49.6101 20.3149C49.5906 20.3149 49.5711 20.3149 49.5516 20.3149C49.5322 20.3149 49.5127 20.3149 49.4933 20.3149C49.4738 20.3149 49.4544 20.3149 49.4349 20.3149C49.4155 20.3149 49.3961 20.3149 49.3766 20.3149C49.3572 20.3149 49.3378 20.3149 49.3184 20.3149C49.299 20.3149 49.2795 20.3149 49.2601 20.3149C49.2407 20.3149 49.2214 20.3149 49.202 20.3149C49.1826 20.3149 49.1632 20.3149 49.1438 20.3149C49.1244 20.3149 49.1051 20.3149 49.0857 20.3149C49.0664 20.3149 49.047 20.3149 49.0276 20.3149C49.0083 20.3149 48.989 20.3149 48.9696 20.3149C48.9503 20.3149 48.9309 20.3149 48.9116 20.3149C48.8923 20.3149 48.873 20.3149 48.8537 20.3149C48.8343 20.3149 48.815 20.3149 48.7957 20.3149C48.7764 20.3149 48.7571 20.3149 48.7378 20.3149C48.7185 20.3149 48.6993 20.3149 48.68 20.3149C48.6607 20.3149 48.6414 20.3149 48.6222 20.3149C48.6029 20.3149 48.5836 20.3149 48.5644 20.3149C48.5451 20.3149 48.5259 20.3149 48.5066 20.3149C48.4874 20.3149 48.4681 20.3149 48.4489 20.3149C48.4296 20.3149 48.4104 20.3149 48.3912 20.3149C48.372 20.3149 48.3527 20.3149 48.3335 20.3149C48.3143 20.3149 48.2951 20.3149 48.2759 20.3149C48.2567 20.3149 48.2375 20.3149 48.2183 20.3149C48.1991 20.3149 48.1799 20.3149 48.1607 20.3149C48.1415 20.3149 48.1224 20.3149 48.1032 20.3149C48.084 20.3149 48.0648 20.3149 48.0457 20.3149C48.0265 20.3149 48.0073 20.3149 47.9882 20.3149C47.969 20.3149 47.9499 20.3149 47.9307 20.3149C47.9116 20.3149 47.8924 20.3149 47.8733 20.3149C47.8541 20.3149 47.835 20.3149 47.8159 20.3149C47.7967 20.3149 47.7776 20.3149 47.7585 20.3149C47.7394 20.3149 47.7203 20.3149 47.7011 20.3149C47.682 20.3149 47.6629 20.3149 47.6438 20.3149C47.6247 20.3149 47.6056 20.3149 47.5865 20.3149C47.5674 20.3149 47.5483 20.3149 47.5292 20.3149C47.5102 20.3149 47.4911 20.3149 47.472 20.3149C47.4529 20.3149 47.4338 20.3149 47.4148 20.3149C47.3957 20.3149 47.3766 20.3149 47.3575 20.3149C47.3385 20.3149 47.3194 20.3149 47.3004 20.3149C47.2813 20.3149 47.2623 20.3149 47.2432 20.3149C47.2241 20.3149 47.2051 20.3149 47.1861 20.3149C47.167 20.3149 47.148 20.3149 47.1289 20.3149C47.1099 20.3149 47.0909 20.3149 47.0718 20.3149C47.0528 20.3149 47.0338 20.3149 47.0148 20.3149C46.9957 20.3149 46.9767 20.3149 46.9577 20.3149C46.9387 20.3149 46.9197 20.3149 46.9007 20.3149C46.8816 20.3149 46.8626 20.3149 46.8436 20.3149C46.8246 20.3149 46.8056 20.3149 46.7866 20.3149C46.7676 20.3149 46.7486 20.3149 46.7296 20.3149C46.7106 20.3149 46.6917 20.3149 46.6727 20.3149C46.6537 20.3149 46.6347 20.3149 46.6157 20.3149C46.5967 20.3149 46.5777 20.3149 46.5588 20.3149C46.5398 20.3149 46.5208 20.3149 46.5018 20.3149C46.4829 20.3149 46.4639 20.3149 46.4449 20.3149C46.426 20.3149 46.407 20.3149 46.388 20.3149C46.3691 20.3149 46.3501 20.3149 46.3312 20.3149C46.3122 20.3149 46.2933 20.3149 46.2743 20.3149C46.2553 20.3149 46.2364 20.3149 46.2174 20.3149C46.1985 20.3149 46.1796 20.3149 46.1606 20.3149C46.1417 20.3149 46.1227 20.3149 46.1038 20.3149C46.0848 20.3149 46.0659 20.3149 46.047 20.3149C46.028 20.3149 46.0091 20.3149 45.9902 20.3149C45.9712 20.3149 45.9523 20.3149 45.9334 20.3149C45.9144 20.3149 45.8955 20.3149 45.8766 20.3149C45.8577 20.3149 45.8387 20.3149 45.8198 20.3149C45.8009 20.3149 45.782 20.3149 45.763 20.3149C45.7441 20.3149 45.7252 20.3149 45.7063 20.3149C45.6874 20.3149 45.6685 20.3149 45.6495 20.3149C45.6306 20.3149 45.6117 20.3149 45.5928 20.3149C45.5739 20.3149 45.555 20.3149 45.5361 20.3149C45.5172 20.3149 45.4983 20.3149 45.4793 20.3149C45.4604 20.3149 45.4415 20.3149 45.4226 20.3149C45.4037 20.3149 45.3848 20.3149 45.3659 20.3149C45.347 20.3149 45.3281 20.3149 45.3092 20.3149C45.2903 20.3149 45.2714 20.3149 45.2525 20.3149C45.2336 20.3149 45.2147 20.3149 45.1958 20.3149C45.1769 20.3149 45.158 20.3149 45.1391 20.3149C45.1202 20.3149 45.1013 20.3149 45.0824 20.3149C45.0635 20.3149 45.0446 20.3149 45.0257 20.3149C45.0068 20.3149 44.9879 20.3149 44.969 20.3149C44.9501 20.3149 44.9312 20.3149 44.9124 20.3149C44.8935 20.3149 44.8746 20.3149 44.8557 20.3149C44.8368 20.3149 44.8179 20.3149 44.799 20.3149C44.7801 20.3149 44.7612 20.3149 44.7423 20.3149C44.7234 20.3149 44.7045 20.3149 44.6856 20.3149C44.6667 20.3149 44.6478 20.3149 44.6289 20.3149C44.6101 20.3149 44.5912 20.3149 44.5723 20.3149C44.5534 20.3149 44.5345 20.3149 44.5156 20.3149C44.4967 20.3149 44.4778 20.3149 44.4589 20.3149C44.44 20.3149 44.4211 20.3149 44.4022 20.3149C44.3833 20.3149 44.3644 20.3149 44.3455 20.3149C44.3266 20.3149 44.3077 20.3149 44.2888 20.3149C44.2699 20.3149 44.251 20.3149 44.2321 20.3149C44.2132 20.3149 44.1943 20.3149 44.1754 20.3149C44.1565 20.3149 44.1376 20.3149 44.1187 20.3149C44.0998 20.3149 44.0809 20.3149 44.062 20.3149C44.0431 20.3149 44.0242 20.3149 44.0053 20.3149C43.9864 20.3149 43.9675 20.3149 43.9485 20.3149C43.9296 20.3149 43.9107 20.3149 43.8918 20.3149C43.8729 20.3149 43.854 20.3149 43.8351 20.3149C43.8162 20.3149 43.7972 20.3149 43.7783 20.3149C43.7594 20.3149 43.7405 20.3149 43.7216 20.3149C43.7027 20.3149 43.6837 20.3149 43.6648 20.3149C43.6459 20.3149 43.627 20.3149 43.608 20.3149C43.5891 20.3149 43.5702 20.3149 43.5512 20.3149C43.5323 20.3149 43.5134 20.3149 43.4945 20.3149C43.4755 20.3149 43.4566 20.3149 43.4377 20.3149C43.4187 20.3149 43.3998 20.3149 43.3808 20.3149C43.3619 20.3149 43.343 20.3149 43.324 20.3149C43.3051 20.3149 43.2861 20.3149 43.2672 20.3149C43.2482 20.3149 43.2293 20.3149 43.2103 20.3149C43.1914 20.3149 43.1724 20.3149 43.1535 20.3149C43.1345 20.3149 43.1155 20.3149 43.0966 20.3149C43.0776 20.3149 43.0586 20.3149 43.0397 20.3149C43.0207 20.3149 43.0017 20.3149 42.9828 20.3149C42.9638 20.3149 42.9448 20.3149 42.9258 20.3149C42.9069 20.3149 42.8879 20.3149 42.8689 20.3149C42.8499 20.3149 42.8309 20.3149 42.812 20.3149C42.793 20.3149 42.774 20.3149 42.755 20.3149C42.736 20.3149 42.717 20.3149 42.698 20.3149C42.679 20.3149 42.66 20.3149 42.641 20.3149C42.622 20.3149 42.603 20.3149 42.584 20.3149C42.565 20.3149 42.5459 20.3149 42.5269 20.3149C42.5079 20.3149 42.4889 20.3149 42.4699 20.3149C42.4508 20.3149 42.4318 20.3149 42.4128 20.3149C42.3937 20.3149 42.3747 20.3149 42.3557 20.3149C42.3366 20.3149 42.3176 20.3149 42.2986 20.3149C42.2795 20.3149 42.2605 20.3149 42.2414 20.3149C42.2224 20.3149 42.2033 20.3149 42.1843 20.3149C42.1652 20.3149 42.1461 20.3149 42.1271 20.3149C42.108 20.3149 42.0889 20.3149 42.0699 20.3149C42.0508 20.3149 42.0317 20.3149 42.0126 20.3149C41.9935 20.3149 41.9745 20.3149 41.9554 20.3149C41.9363 20.3149 41.9172 20.3149 41.8981 20.3149C41.879 20.3149 41.8599 20.3149 41.8408 20.3149C41.8217 20.3149 41.8026 20.3149 41.7835 20.3149C41.7644 20.3149 41.7452 20.3149 41.7261 20.3149C41.707 20.3149 41.6879 20.3149 41.6687 20.3149C41.6496 20.3149 41.6305 20.3149 41.6113 20.3149C41.5922 20.3149 41.573 20.3149 41.5539 20.3149C41.5348 20.3149 41.5156 20.3149 41.4964 20.3149C41.4773 20.3149 41.4581 20.3149 41.439 20.3149C41.4198 20.3149 41.4006 20.3149 41.3814 20.3149C41.3623 20.3149 41.3431 20.3149 41.3239 20.3149C41.3047 20.3149 41.2855 20.3149 41.2663 20.3149C41.2471 20.3149 41.2279 20.3149 41.2087 20.3149C41.1895 20.3149 41.1703 20.3149 41.1511 20.3149C41.1319 20.3149 41.1127 20.3149 41.0934 20.3149C41.0742 20.3149 41.055 20.3149 41.0357 20.3149C41.0165 20.3149 40.9973 20.3149 40.978 20.3149C40.9588 20.3149 40.9395 20.3149 40.9202 20.3149C40.901 20.3149 40.8817 20.3149 40.8625 20.3149C40.8432 20.3149 40.8239 20.3149 40.8046 20.3149C40.7854 20.3149 40.7661 20.3149 40.7468 20.3149C40.7275 20.3149 40.7082 20.3149 40.6889 20.3149C40.6696 20.3149 40.6503 20.3149 40.631 20.3149C40.6116 20.3149 40.5923 20.3149 40.573 20.3149C40.5537 20.3149 40.5343 20.3149 40.515 20.3149C40.4957 20.3149 40.4763 20.3149 40.457 20.3149C40.4376 20.3149 40.4183 20.3149 40.3989 20.3149C40.3795 20.3149 40.3602 20.3149 40.3408 20.3149C40.3214 20.3149 40.302 20.3149 40.2827 20.3149C40.2633 20.3149 40.2439 20.3149 40.2245 20.3149C40.2051 20.3149 40.1857 20.3149 40.1663 20.3149C40.1468 20.3149 40.1274 20.3149 40.108 20.3149C40.0886 20.3149 40.0691 20.3149 40.0497 20.3149C40.0303 20.3149 40.0108 20.3149 39.9914 20.3149C39.9719 20.3149 39.9524 20.3149 39.933 20.3149C39.9135 20.3149 39.894 20.3149 39.8746 20.3149C39.8551 20.3149 39.8356 20.3149 39.8161 20.3149C39.7966 20.3149 39.7771 20.3149 39.7576 20.3149C39.7381 20.3149 39.7186 20.3149 39.699 20.3149C39.6795 20.3149 39.66 20.3149 39.6405 20.3149C39.6209 20.3149 39.6014 20.3149 39.5818 20.3149C39.5623 20.3149 39.5427 20.3149 39.5231 20.3149C39.5036 20.3149 39.484 20.3149 39.4644 20.3149C39.4448 20.3149 39.4253 20.3149 39.4057 20.3149C39.3861 20.3149 39.3665 20.3149 39.3469 20.3149C39.3272 20.3149 39.3076 20.3149 39.288 20.3149C39.2684 20.3149 39.2487 20.3149 39.2291 20.3149C39.2095 20.3149 39.1898 20.3149 39.1701 20.3149C39.1505 20.3149 39.1308 20.3149 39.1112 20.3149C39.0915 20.3149 39.0718 20.3149 39.0521 20.3149C39.0324 20.3149 39.0127 20.3149 38.993 20.3149C38.9733 20.3149 38.9536 20.3149 38.9339 20.3149C38.9142 20.3149 38.8944 20.3149 38.8747 20.3149C38.8549 20.3149 38.8352 20.3149 38.8154 20.3149C38.7957 20.3149 38.7759 20.3149 38.7562 20.3149C38.7364 20.3149 38.7166 20.3149 38.6968 20.3149C38.677 20.3149 38.6572 20.3149 38.6374 20.3149C38.6176 20.3149 38.5978 20.3149 38.578 20.3149C38.5582 20.3149 38.5383 20.3149 38.5185 20.3149C38.4986 20.3149 38.4788 20.3149 38.4589 20.3149C38.4391 20.3149 38.4192 20.3149 38.3993 20.3149C38.3795 20.3149 38.3596 20.3149 38.3397 20.3149C38.3198 20.3149 38.2999 20.3149 38.28 20.3149C38.2601 20.3149 38.2401 20.3149 38.2202 20.3149C38.2003 20.3149 38.1803 20.3149 38.1604 20.3149C38.1404 20.3149 38.1205 20.3149 38.1005 20.3149C38.0806 20.3149 38.0606 20.3149 38.0406 20.3149C38.0206 20.3149 38.0006 20.3149 37.9806 20.3149C37.9606 20.3149 37.9406 20.3149 37.9206 20.3149C37.9005 20.3149 37.8805 20.3149 37.8605 20.3149C37.8404 20.3149 37.8204 20.3149 37.8003 20.3149C37.7802 20.3149 37.7602 20.3149 37.7401 20.3149C37.72 20.3149 37.6999 20.3149 37.6798 20.3149C37.6597 20.3149 37.6396 20.3149 37.6195 20.3149C37.5994 20.3149 37.5792 20.3149 37.5591 20.3149C37.5389 20.3149 37.5188 20.3149 37.4986 20.3149C37.4785 20.3149 37.4583 20.3149 37.4381 20.3149C37.4179 20.3149 37.3977 20.3149 37.3775 20.3149C37.3573 20.3149 37.3371 20.3149 37.3169 20.3149C37.2967 20.3149 37.2764 20.3149 37.2562 20.3149C37.236 20.3149 37.2157 20.3149 37.1954 20.3149C37.1752 20.3149 37.1549 20.3149 37.1346 20.3149C37.1143 20.3149 37.094 20.3149 37.0737 20.3149C37.0534 20.3149 37.0331 20.3149 37.0128 20.3149C36.9924 20.3149 36.9721 20.3149 36.9517 20.3149C36.9314 20.3149 36.911 20.3149 36.8906 20.3149C36.8703 20.3149 36.8499 20.3149 36.8295 20.3149C36.8091 20.3149 36.7887 20.3149 36.7683 20.3149C36.7479 20.3149 36.7274 20.3149 36.707 20.3149C36.6866 20.3149 36.6661 20.3149 36.6456 20.3149C36.6252 20.3149 36.6047 20.3149 36.5842 20.3149C36.5637 20.3149 36.5432 20.3149 36.5227 20.3149C36.5022 20.3149 36.4817 20.3149 36.4612 20.3149C36.4407 20.3149 36.4201 20.3149 36.3996 20.3149C36.379 20.3149 36.3584 20.3149 36.3379 20.3149C36.3173 20.3149 36.2967 20.3149 36.2761 20.3149C36.2555 20.3149 36.2349 20.3149 36.2143 20.3149C36.1936 20.3149 36.173 20.3149 36.1524 20.3149C36.1317 20.3149 36.111 20.3149 36.0904 20.3149C36.0697 20.3149 36.049 20.3149 36.0283 20.3149C36.0076 20.3149 35.9869 20.3149 35.9662 20.3149C35.9455 20.3149 35.9247 20.3149 35.904 20.3149C35.8833 20.3149 35.8625 20.3149 35.8417 20.3149C35.821 20.3149 35.8002 20.3149 35.7794 20.3149C35.7586 20.3149 35.7378 20.3149 35.717 20.3149C35.6962 20.3149 35.6753 20.3149 35.6545 20.3149C35.6336 20.3149 35.6128 20.3149 35.5919 20.3149C35.571 20.3149 35.5502 20.3149 35.5293 20.3149C35.5084 20.3149 35.4875 20.3149 35.4665 20.3149C35.4456 20.3149 35.4247 20.3149 35.4037 20.3149C35.3828 20.3149 35.3618 20.3149 35.3409 20.3149C35.3199 20.3149 35.2989 20.3149 35.2779 20.3149C35.2569 20.3149 35.2359 20.3149 35.2149 20.3149C35.1939 20.3149 35.1728 20.3149 35.1518 20.3149C35.1307 20.3149 35.1097 20.3149 35.0886 20.3149C35.0675 20.3149 35.0464 20.3149 35.0253 20.3149C35.0042 20.3149 34.9831 20.3149 34.962 20.3149C34.9408 20.3149 34.9197 20.3149 34.8985 20.3149C34.8774 20.3149 34.8562 20.3149 34.835 20.3149C34.8138 20.3149 34.7926 20.3149 34.7714 20.3149C34.7502 20.3149 34.729 20.3149 34.7078 20.3149C34.6865 20.3149 34.6653 20.3149 34.644 20.3149C34.6227 20.3149 34.6014 20.3149 34.5802 20.3149C34.5589 20.3149 34.5375 20.3149 34.5162 20.3149C34.4949 20.3149 34.4736 20.3149 34.4522 20.3149C34.4309 20.3149 34.4095 20.3149 34.3881 20.3149C34.3667 20.3149 34.3453 20.3149 34.3239 20.3149C34.3025 20.3149 34.2811 20.3149 34.2597 20.3149C34.2382 20.3149 34.2168 20.3149 34.1953 20.3149C34.1739 20.3149 34.1524 20.3149 34.1309 20.3149C34.1094 20.3149 34.0879 20.3149 34.0664 20.3149C34.0448 20.3149 34.0233 20.3149 34.0017 20.3149C33.9802 20.3149 33.9586 20.3149 33.937 20.3149C33.9155 20.3149 33.8939 20.3149 33.8723 20.3149C33.8506 20.3149 33.829 20.3149 33.8074 20.3149C33.7857 20.3149 33.7641 20.3149 33.7424 20.3149C33.7207 20.3149 33.699 20.3149 33.6773 20.3149C33.6556 20.3149 33.6339 20.3149 33.6122 20.3149C33.5905 20.3149 33.5687 20.3149 33.547 20.3149C33.5252 20.3149 33.5034 20.3149 33.4816 20.3149C33.4598 20.3149 33.438 20.3149 33.4162 20.3149C33.3944 20.3149 33.3725 20.3149 33.3507 20.3149C33.3288 20.3149 33.307 20.3149 33.2851 20.3149C33.2632 20.3149 33.2413 20.3149 33.2194 20.3149C33.1974 20.3149 33.1755 20.3149 33.1536 20.3149C33.1316 20.3149 33.1097 20.3149 33.0877 20.3149C33.0657 20.3149 33.0437 20.3149 33.0217 20.3149C32.9997 20.3149 32.9776 20.3149 32.9556 20.3149C32.9336 20.3149 32.9115 20.3149 32.8894 20.3149C32.8674 20.3149 32.8453 20.3149 32.8232 20.3149C32.801 20.3149 32.7789 20.3149 32.7568 20.3149C32.7346 20.3149 32.7125 20.3149 32.6903 20.3149C32.6681 20.3149 32.646 20.3149 32.6237 20.3149C32.6015 20.3149 32.5793 20.3149 32.5571 20.3149C32.5348 20.3149 32.5126 20.3149 32.4903 20.3149C32.468 20.3149 32.4458 20.3149 32.4235 20.3149C32.4011 20.3149 32.3788 20.3149 32.3565 20.3149C32.3342 20.3149 32.3118 20.3149 32.2894 20.3149C32.2671 20.3149 32.2447 20.3149 32.2223 20.3149C32.1999 20.3149 32.1774 20.3149 32.155 20.3149C32.1326 20.3149 32.1101 20.3149 32.0876 20.3149C32.0652 20.3149 32.0427 20.3149 32.0202 20.3149C31.9977 20.3149 31.9751 20.3149 31.9526 20.3149C31.93 20.3149 31.9075 20.3149 31.8849 20.3149C31.8623 20.3149 31.8397 20.3149 31.8171 20.3149C31.7945 20.3149 31.7719 20.3149 31.7492 20.3149C31.7266 20.3149 31.7039 20.3149 31.6813 20.3149C31.6586 20.3149 31.6359 20.3149 31.6132 20.3149C31.5904 20.3149 31.5677 20.3149 31.545 20.3149C31.5222 20.3149 31.4994 20.3149 31.4767 20.3149C31.4539 20.3149 31.4311 20.3149 31.4082 20.3149C31.3854 20.3149 31.3626 20.3149 31.3397 20.3149C31.3169 20.3149 31.294 20.3149 31.2711 20.3149C31.2482 20.3149 31.2253 20.3149 31.2024 20.3149C31.1794 20.3149 31.1565 20.3149 31.1335 20.3149C31.1106 20.3149 31.0876 20.3149 31.0646 20.3149C31.0416 20.3149 31.0185 20.3149 30.9955 20.3149C30.9725 20.3149 30.9494 20.3149 30.9263 20.3149C30.9033 20.3149 30.8802 20.3149 30.8571 20.3149C30.8339 20.3149 30.8108 20.3149 30.7877 20.3149C30.7645 20.3149 30.7413 20.3149 30.7182 20.3149C30.695 20.3149 30.6718 20.3149 30.6485 20.3149C30.6253 20.3149 30.6021 20.3149 30.5788 20.3149C30.5555 20.3149 30.5323 20.3149 30.509 20.3149C30.4857 20.3149 30.4623 20.3149 30.439 20.3149C30.4157 20.3149 30.3923 20.3149 30.3689 20.3149C30.3456 20.3149 30.3222 20.3149 30.2988 20.3149C30.2753 20.3149 30.2519 20.3149 30.2285 20.3149C30.205 20.3149 30.1815 20.3149 30.158 20.3149C30.1346 20.3149 30.111 20.3149 30.0875 20.3149C30.064 20.3149 30.0404 20.3149 30.0169 20.3149C29.9933 20.3149 29.9697 20.3149 29.9461 20.3149C29.9225 20.3149 29.8989 20.3149 29.8752 20.3149C29.8516 20.3149 29.8279 20.3149 29.8042 20.3149C29.7805 20.3149 29.7568 20.3149 29.7331 20.3149C29.7094 20.3149 29.6856 20.3149 29.6619 20.3149C29.6381 20.3149 29.6143 20.3149 29.5905 20.3149C29.5667 20.3149 29.5429 20.3149 29.519 20.3149C29.4952 20.3149 29.4713 20.3149 29.4474 20.3149C29.4236 20.3149 29.3996 20.3149 29.3757 20.3149C29.3518 20.3149 29.3279 20.3149 29.3039 20.3149C29.2799 20.3149 29.2559 20.3149 29.2319 20.3149C29.2079 20.3149 29.1839 20.3149 29.1598 20.3149C29.1358 20.3149 29.1117 20.3149 29.0876 20.3149C29.0636 20.3149 29.0394 20.3149 29.0153 20.3149C28.9912 20.3149 28.967 20.3149 28.9429 20.3149C28.9187 20.3149 28.8945 20.3149 28.8703 20.3149V40.3149ZM63.5889 59.8855L79.445 45.1185L65.8145 30.4826L49.9583 45.2496L63.5889 59.8855ZM39.3137 45.2496L23.4575 30.4826L9.827 45.1185L25.6831 59.8855L39.3137 45.2496ZM41.4737 51.7247V31.7247H21.4737V51.7247H41.4737ZM47.5201 51.7247H67.5201V31.7247H47.5201V51.7247ZM47.5201 53.312V73.312H67.5201V53.312H47.5201ZM41.4737 53.312H21.4737V73.312H41.4737V53.312ZM63.335 35.0961L81.9648 27.8208L43.335 35.0961H63.335ZM65.1968 39.8636L80.0944 53.2076L88.3009 44.0456L83.8266 32.5883L65.1968 39.8636ZM53.2188 53.2363L37.2685 41.1703L68.1164 66.5803L53.2188 53.2363ZM63.335 39.8636L79.2852 51.9297L83.335 46.5763V39.8636H63.335ZM25.6588 35.0961H45.6588L7.02902 27.8208L25.6588 35.0961ZM23.797 39.8636L5.16721 32.5884L0.692956 44.0456L8.89939 53.2076L23.797 39.8636ZM35.7751 53.2363L20.8774 66.5803L51.7253 41.1703L35.7751 53.2363ZM25.6588 39.8636H5.65884V46.5763L9.70861 51.9297L25.6588 39.8636ZM52.1716 6.37401L40.2838 -9.70948L32.1716 -3.71352V6.37401H52.1716ZM60.1951 0.443604L65.634 -18.8027L56.195 -21.4701L48.3072 -15.6399L60.1951 0.443604ZM65.5444 1.95528L82.8528 -8.06552L78.7888 -15.0852L70.9833 -17.291L65.5444 1.95528ZM68.1026 6.37401L88.0681 5.19957L87.7893 0.461087L85.4111 -3.6468L68.1026 6.37401ZM68.9166 20.2118L55.8578 35.36L91.6576 66.2219L88.8821 19.0374L68.9166 20.2118ZM65.5444 17.3047L45.6354 15.3986L44.6493 25.6975L52.4856 32.4529L65.5444 17.3047ZM66.5909 6.37401L86.4999 8.28017L86.8827 4.28196L85.6922 0.445961L66.5909 6.37401ZM65.5444 3.00184L84.6456 -2.92621L80.2784 -16.9982H65.5444V3.00184ZM60.1951 3.00184V-16.9982H52.8101L47.1973 -12.1987L60.1951 3.00184ZM52.1716 9.86257H32.1716V53.2791L65.1694 25.0631L52.1716 9.86257ZM36.6593 6.37401H56.6593V-3.71352L48.5471 -9.70948L36.6593 6.37401ZM28.6358 0.443604L40.5237 -15.6399L32.6359 -21.4701L23.1969 -18.8027L28.6358 0.443604ZM23.2865 1.95528L17.8476 -17.291L10.0421 -15.0852L5.97807 -8.06553L23.2865 1.95528ZM20.7283 6.37401L3.41983 -3.6468L1.04155 0.461085L0.762821 5.19957L20.7283 6.37401ZM19.9143 20.2118L-0.0511627 19.0374L-2.82671 66.2219L32.9731 35.36L19.9143 20.2118ZM23.2865 17.3047L36.3453 32.4529L44.1816 25.6975L43.1955 15.3985L23.2865 17.3047ZM22.24 6.37401L3.13874 0.445945L1.94823 4.28196L2.33104 8.28017L22.24 6.37401ZM23.2865 3.00184V-16.9982H8.5525L4.18529 -2.92623L23.2865 3.00184ZM28.6358 3.00184L41.6336 -12.1987L36.0208 -16.9982H28.6358V3.00184ZM36.6593 9.86257L23.6615 25.0631L56.6593 53.2791V9.86257H36.6593ZM42.0385 40.9264L49.9805 22.5709L42.5634 19.3617L34.999 22.2062L42.0385 40.9264ZM47.2017 40.9264L54.3987 22.2662L47.0036 19.414L39.6623 22.4019L47.2017 40.9264ZM46.3206 47.4738L41.5601 28.0486L30.3762 30.7894L27.1312 41.8376L46.3206 47.4738ZM39.1589 42.0093L32.1194 23.2891L15.6497 29.4823L19.6945 46.6068L39.1589 42.0093ZM50.0093 42.0093L69.4665 46.6371L73.5098 29.6371L57.2062 23.349L50.0093 42.0093ZM48.8574 46.8521L53.6179 66.2773L65.487 63.3686L68.3146 51.4799L48.8574 46.8521ZM45.3622 50.7369V70.7369H60.3327L64.5516 56.3731L45.3622 50.7369ZM44.1475 50.7369L25.634 58.3032L30.7155 70.7369H44.1475V50.7369ZM42.8139 47.4738L61.3275 39.9075L57.4834 30.5018L47.6203 28.0599L42.8139 47.4738ZM40.3028 46.8521L20.8384 51.4496L23.645 63.3319L35.4964 66.266L40.3028 46.8521ZM44.5411 42.0093L36.5991 60.3647L44.3043 63.6986L52.0805 60.5338L44.5411 42.0093ZM41.4737 71.7247H47.5201V31.7247H41.4737V71.7247ZM27.5201 51.7247V53.312H67.5201V51.7247H27.5201ZM47.5201 33.312H41.4737V73.312H47.5201V33.312ZM61.4737 53.312V51.7247H21.4737V53.312H61.4737ZM44.7052 42.3714L46.567 47.1389L83.8266 32.5883L81.9648 27.8208L44.7052 42.3714ZM50.2992 26.5197L38.3211 39.8924L68.1164 66.5803L80.0944 53.2076L50.2992 26.5197ZM69.169 65.3024L79.2852 51.9297L47.3848 27.7976L37.2685 41.1703L69.169 65.3024ZM83.335 39.8636V35.0961H43.335V39.8636H83.335ZM7.02902 27.8208L5.16721 32.5884L42.4269 47.1389L44.2887 42.3714L7.02902 27.8208ZM8.89939 53.2076L20.8774 66.5803L50.6727 39.8924L38.6947 26.5197L8.89939 53.2076ZM51.7253 41.1703L41.6091 27.7976L9.70861 51.9297L19.8248 65.3024L51.7253 41.1703ZM45.6588 39.8636V35.0961H5.65884V39.8636H45.6588ZM64.0595 22.4575L72.0829 16.5271L48.3072 -15.6399L40.2838 -9.70948L64.0595 22.4575ZM54.7562 19.6899L60.1055 21.2015L70.9833 -17.291L65.634 -18.8027L54.7562 19.6899ZM48.2359 11.9761L50.7941 16.3948L85.4111 -3.6468L82.8528 -8.06552L48.2359 11.9761ZM48.1371 7.54844L48.9511 21.3862L88.8821 19.0374L88.0681 5.19957L48.1371 7.54844ZM81.9754 5.06361L78.6031 2.15652L52.4856 32.4529L55.8578 35.36L81.9754 5.06361ZM85.4533 19.2109L86.4999 8.28017L46.6819 4.46785L45.6354 15.3986L85.4533 19.2109ZM85.6922 0.445961L84.6456 -2.92621L46.4431 8.92988L47.4896 12.3021L85.6922 0.445961ZM65.5444 -16.9982H60.1951V23.0018H65.5444V-16.9982ZM47.1973 -12.1987L39.1738 -5.338L65.1694 25.0631L73.1929 18.2024L47.1973 -12.1987ZM72.1716 9.86257V6.37401H32.1716V9.86257H72.1716ZM48.5471 -9.70948L40.5237 -15.6399L16.748 16.5271L24.7714 22.4575L48.5471 -9.70948ZM23.1969 -18.8027L17.8476 -17.291L28.7254 21.2015L34.0747 19.6899L23.1969 -18.8027ZM5.97807 -8.06553L3.41983 -3.6468L38.0368 16.3948L40.595 11.9761L5.97807 -8.06553ZM0.762821 5.19957L-0.0511627 19.0374L39.8798 21.3862L40.6938 7.54844L0.762821 5.19957ZM32.9731 35.36L36.3453 32.4529L10.2278 2.15652L6.85553 5.0636L32.9731 35.36ZM43.1955 15.3985L42.149 4.46784L2.33104 8.28017L3.37759 19.2109L43.1955 15.3985ZM41.3413 12.3021L42.3878 8.9299L4.18529 -2.92623L3.13874 0.445945L41.3413 12.3021ZM23.2865 23.0018H28.6358V-16.9982H23.2865V23.0018ZM15.638 18.2024L23.6615 25.0631L49.6571 -5.338L41.6336 -12.1987L15.638 18.2024ZM56.6593 9.86257V6.37401H16.6593V9.86257H56.6593ZM46.1984 60.7295L49.078 59.6466L34.999 22.2062L32.1194 23.2891L46.1984 60.7295ZM40.0047 59.5866L42.8123 60.6695L57.2062 23.349L54.3987 22.2662L40.0047 59.5866ZM30.552 37.3814L29.4002 42.2243L68.3146 51.4799L69.4665 46.6371L30.552 37.3814ZM44.0969 27.4269L41.5601 28.0486L51.0811 66.899L53.6179 66.2773L44.0969 27.4269ZM27.1312 41.8376L26.1728 45.1007L64.5516 56.3731L65.51 53.11L27.1312 41.8376ZM45.3622 30.7369H44.1475V70.7369H45.3622V30.7369ZM62.661 43.1706L61.3275 39.9075L24.3004 55.0401L25.634 58.3032L62.661 43.1706ZM47.6203 28.0599L45.1091 27.4382L35.4964 66.266L38.0076 66.8877L47.6203 28.0599ZM59.7672 42.2546L58.6233 37.4118L19.6945 46.6068L20.8384 51.4496L59.7672 42.2546ZM34.0964 59.2819L36.5991 60.3647L52.4832 23.6538L49.9805 22.5709L34.0964 59.2819ZM52.0805 60.5338L54.7411 59.4509L39.6623 22.4019L37.0017 23.4847L52.0805 60.5338Z" fill="black" mask="url(#path-2-inside-1_443_19800)"/>
<path d="M56.7736 52.5693L72.6297 37.8022M32.4984 52.5693L16.6423 37.8022" stroke="black" stroke-width="2"/>
<path d="M28.8594 31.8718C41.2563 31.8718 48.2067 31.8718 60.6035 31.8718" stroke="black" stroke-width="4"/>
<path d="M38.8199 4.65454H49.9741V11.3061C49.9741 14.5328 47.3582 17.1487 44.1314 17.1487C41.198 17.1487 38.8199 14.7706 38.8199 11.8372V4.65454Z" fill="black"/>
<path d="M13.8178 81.8554H16.1651L17.7412 80.2793V71.9721L16.1651 70.396H13.8178V72.6616H15.0816V79.5898H13.8178V81.8554Z" fill="white"/>
<path d="M13.447 72.6616H12.1429V79.5898H13.447V81.8554H11.0593L9.49966 80.2957V71.9392L11.0429 70.396H13.447V72.6616Z" fill="white"/>
<path d="M24.0953 81.8554H26.3943L27.954 80.2793V76.5525L26.4108 74.9929H24.0953V77.2585H25.3108V79.5898H24.0953V81.8554Z" fill="white"/>
<path d="M23.7245 77.2585V74.9929H22.3721V72.6616H23.7245V70.396H21.2721L19.7125 71.9557V75.6988L21.2721 77.2585H23.7245Z" fill="white"/>
<path d="M24.0953 70.396V72.6616H25.3108V73.778H27.954V71.9721L26.3943 70.396H24.0953Z" fill="white"/>
<path d="M23.7245 79.5898V81.8554H21.2721L19.7125 80.2957V78.4734H22.3721V79.5898H23.7245Z" fill="white"/>
<path d="M66.5592 81.8554H68.8779V79.5898H66.5592V81.8554Z" fill="white"/>
<path d="M66.1883 77.2585H64.6258V79.5898H66.1883V81.8554H61.9662V70.396H66.1883V72.6616H64.6258V74.9929H66.1883V77.2585Z" fill="white"/>
<path d="M66.5592 77.2585H68.2048V74.9929H66.5592V77.2585Z" fill="white"/>
<path d="M66.5592 72.6616H68.8451V70.396H66.5592V72.6616Z" fill="white"/>
<path d="M75.6433 77.948H77.7336L79.2932 76.3884V71.9557L77.7336 70.396H75.6433V72.6616H76.6336V75.6988H75.6433V77.948Z" fill="white"/>
<path d="M75.2725 72.6616H73.9247V75.6988H75.2725V77.948H73.9247V81.8554H71.2651V70.396H75.2725V72.6616Z" fill="white"/>
<path d="M90.4321 81.8554H92.7214L94.281 80.2957V77.9644H91.6214V79.6062H90.4321V81.8554Z" fill="white"/>
<path d="M90.0612 72.6616H88.6991V79.6062H90.0612V81.8554H87.5991L86.0395 80.2957V71.9557L87.5991 70.396H90.0612V72.6616Z" fill="white"/>
<path d="M90.4321 72.6616H91.6214V74.3033H94.281V71.9721L92.705 70.396H90.4321V72.6616Z" fill="white"/>
<path d="M4.24273 77.948H6.46847L8.02812 76.3884V71.9557L6.46847 70.396H4.24273V72.6616H5.3685V75.6988H4.24273V77.948Z" fill="white"/>
<path d="M3.87185 72.6616H2.65962V75.6988H3.87185V77.948H2.65962V81.8554H0V70.396H3.87185V72.6616Z" fill="white"/>
<path d="M44.5588 73.5104L43.5816 70.396H40.0847L39.1019 73.5427L41.1538 75.5946L41.8413 73.3183L42.5093 75.5599L44.5588 73.5104Z" fill="white"/>
<path d="M44.684 73.9097L47.177 81.8554H44.386L43.7293 79.6062H41.9933V77.3406H43.0398L42.6297 75.964L44.684 73.9097Z" fill="white"/>
<path d="M41.0321 75.9974L40.6265 77.3406H41.6224V79.6062H39.9369L39.2802 81.8554H36.5057L38.9771 73.9423L41.0321 75.9974Z" fill="white"/>
<path d="M34.5057 75.3899V72.6616H37.0012V70.396H29.3506V72.6616H31.8625V75.3899H34.5057Z" fill="white"/>
<path d="M34.5057 75.7608V81.8554H31.8625V75.7608H34.5057Z" fill="white"/>
<path d="M51.0457 75.3899V70.396H48.4025V75.3899H51.0457Z" fill="white"/>
<path d="M48.4025 75.7608V81.8554H52.819V79.5898H51.0457V75.7608H48.4025Z" fill="white"/>
<path d="M53.1899 79.5898H55.3143V81.8554H53.1899V79.5898Z" fill="white"/>
<path d="M83.7363 75.3899V70.396H81.0931V75.3899H83.7363Z" fill="white"/>
<path d="M81.0931 75.7608V81.8554H83.7363V75.7608H81.0931Z" fill="white"/>
<path d="M28.7444 101.556H32.323V90.0969H29.6962V96.6803L28.7444 93.954V101.556Z" fill="white"/>
<path d="M28.3735 92.8917L27.3978 90.0969H23.7203V101.556H26.3471V94.9072L28.3735 100.769V92.8917Z" fill="white"/>
<path d="M77.0735 101.556H79.3421L80.9018 99.9802V96.2534L79.3586 94.6938H77.0735V96.9594H78.2586V99.2907H77.0735V101.556Z" fill="white"/>
<path d="M76.7026 96.9594V94.6938H75.3199V92.3625H76.7026V90.0969H74.2199L72.6602 91.6566V95.3997L74.2199 96.9594H76.7026Z" fill="white"/>
<path d="M77.0735 90.0969V92.3625H78.2586V93.4789H80.9018V91.673L79.3421 90.0969H77.0735Z" fill="white"/>
<path d="M76.7026 99.2907V101.556H74.2199L72.6602 99.9966V98.1743H75.3199V99.2907H76.7026Z" fill="white"/>
<path d="M60.5139 93.2453L59.5261 90.0969H56.0291L55.0645 93.1855L57.116 95.2369L57.7858 93.0192L58.464 95.2952L60.5139 93.2453Z" fill="white"/>
<path d="M60.6391 93.6446L58.5844 95.6993L58.9843 97.0415H57.9982V99.3071H59.6738L60.3305 101.556H63.1215L60.6391 93.6446Z" fill="white"/>
<path d="M57.6273 99.3071V97.0415H56.5709L56.9943 95.6398L54.9397 93.5852L52.4501 101.556H55.2247L55.8814 99.3071H57.6273Z" fill="white"/>
<path d="M20.0404 93.7338L18.8993 90.0969H15.4024L14.2754 93.7055L16.3309 95.7611L17.1591 93.0192L17.9846 95.7897L20.0404 93.7338Z" fill="white"/>
<path d="M20.1657 94.133L18.105 96.1938L18.3576 97.0415H17.4788L17.3512 97.1691V99.3071H19.0471L19.7038 101.556H22.4948L20.1657 94.133Z" fill="white"/>
<path d="M16.9803 99.3071V97.0415H15.9442L16.2093 96.1639L14.1506 94.1052L11.8234 101.556H14.598L15.2547 99.3071H16.9803Z" fill="white"/>
<path d="M45.0391 94.1353L43.8297 90.0969H40.2179V101.556H42.8611V94.9072L43.1804 95.994L45.0391 94.1353Z" fill="white"/>
<path d="M45.16 94.539L43.2995 96.3994L44.8148 101.556H46.7028L48.1541 96.4001L46.2832 94.5292L45.7177 96.4012L45.16 94.539Z" fill="white"/>
<path d="M46.4049 94.1264L47.6221 90.0969H51.2175V101.556H48.5744V94.9072L48.2693 95.9908L46.4049 94.1264Z" fill="white"/>
<path d="M37.5863 95.0605V90.0969H34.9431V95.0605H37.5863Z" fill="white"/>
<path d="M37.5863 95.4314H34.9431V101.556H37.5863V95.4314Z" fill="white"/>
<path d="M66.9902 95.0605V90.0969H64.347V95.0605H66.9902Z" fill="white"/>
<path d="M64.347 95.4314V101.556H68.8293V99.2907H66.9902V95.4314H64.347Z" fill="white"/>
<path d="M69.2002 99.2907V101.556H71.2587V99.2907H69.2002Z" fill="white"/>
</svg>
