<svg width="143" height="27" viewBox="0 0 143 27" fill="none" xmlns="http://www.w3.org/2000/svg">
<path fill-rule="evenodd" clip-rule="evenodd" d="M57.1366 7.02883C57.1644 7.22286 56.8792 7.58235 56.1268 8.30106L55.0784 9.30279H51.6252C47.8995 9.30279 47.6271 9.34507 47.3018 9.97414C47.0191 10.5209 47.077 10.9513 47.4964 11.4211L47.8768 11.8472L54.8798 11.9777L55.6394 12.3627C58.0277 13.5728 58.5486 16.7094 56.6806 18.6326C55.6244 19.7202 55.5126 19.7388 50.0332 19.7403C45.7333 19.7415 45.1777 19.7184 45.1073 19.5352C44.9729 19.1851 44.9953 19.1568 46.2124 18.1305L47.3967 17.1319H54.4432L54.8246 16.7505C55.3452 16.2298 55.3455 15.5959 54.8255 15.0136L54.445 14.5874L50.8783 14.5222C47.4926 14.4602 47.2837 14.4421 46.7607 14.1626C44.0357 12.7065 43.7631 9.05409 46.2543 7.37801C47.2176 6.72989 47.3754 6.71345 52.4005 6.73668C57.0457 6.75808 57.0984 6.76134 57.1366 7.02883ZM74.2309 7.13178C75.2833 7.86132 75.301 7.96258 75.2978 13.2259C75.2945 18.4396 75.2738 18.5676 74.3139 19.3L73.8207 19.6763L68.7215 19.7142C63.0655 19.7561 63.2245 19.7695 62.5741 19.1984C61.6579 18.3939 61.6694 18.4619 61.6243 13.6123C61.5803 8.91525 61.6322 8.38888 62.2142 7.62489C62.915 6.70484 63.0195 6.69036 68.6573 6.72624L73.6923 6.75834L74.2309 7.13178ZM81.6769 6.86768C81.7765 6.98773 81.8326 8.67085 81.8559 12.2502L81.8901 17.4581L86.3806 17.4924C91.8183 17.534 91.844 17.5434 90.5307 18.9922L89.8497 19.7434L84.689 19.7425C80.8502 19.7418 79.4883 19.7015 79.3718 19.585C79.1463 19.3595 79.1463 7.07515 79.3718 6.84968C79.5957 6.62576 81.4884 6.64051 81.6769 6.86768ZM106.315 6.83193C106.837 7.02923 107.393 7.58613 107.674 8.19367C107.897 8.67477 107.916 9.13421 107.917 14.0655C107.917 17.0079 107.87 19.4912 107.811 19.5838C107.734 19.706 107.383 19.7418 106.541 19.7143L105.377 19.6763L105.247 14.8484H97.1569L97.0842 17.2624C97.0441 18.5901 97.0002 19.6932 96.9863 19.7139C96.9725 19.7345 96.4179 19.7345 95.7542 19.7139L94.5472 19.6763L94.5085 14.2612C94.4624 7.77834 94.5044 7.54803 95.8417 6.94049C96.4701 6.65512 105.597 6.56052 106.315 6.83193ZM114.387 6.79292C114.461 6.84563 114.961 7.41324 115.496 8.05419C116.573 9.34403 117.54 10.4936 119.013 12.233C119.551 12.8686 120.233 13.6877 120.527 14.0532C122.624 16.6559 122.536 16.774 122.536 11.3454C122.536 7.76347 122.569 6.95889 122.719 6.83402C122.835 6.73772 123.301 6.6961 123.991 6.72023L125.081 6.75834V19.6763L124.037 19.7541C123.463 19.7969 122.874 19.7887 122.729 19.736C122.584 19.6833 120.77 17.6666 118.698 15.2543C115.323 11.3248 114.647 10.6366 114.418 10.9012C114.402 10.9191 114.358 12.9009 114.32 15.3051L114.25 19.6763L113.28 19.7416C111.618 19.8533 111.777 20.5082 111.737 13.3704C111.715 9.26704 111.749 7.11743 111.84 6.94793C111.982 6.68305 114.052 6.55713 114.387 6.79292ZM141.024 6.83193C141.474 7.00195 142.069 7.55103 142.316 8.02404C142.467 8.31163 142.5 9.4218 142.5 14.0639V19.7514L140.086 19.6763L140.051 17.3738C140.024 15.6365 139.972 15.0354 139.839 14.9253C139.716 14.823 138.477 14.7897 135.7 14.8138L131.735 14.8484L131.67 17.2193C131.634 18.5232 131.573 19.6217 131.534 19.6602C131.428 19.7661 129.372 19.7886 129.206 19.6855C129.103 19.6218 129.06 18.0026 129.06 14.1189C129.06 6.12914 128.542 6.70027 135.805 6.69597C138.923 6.69414 140.788 6.74268 141.024 6.83193ZM97.4931 9.31284C97.0922 9.71382 97.0916 9.71604 97.0916 11.1909C97.0916 12.4169 97.1266 12.6809 97.2981 12.7467C97.788 12.9347 105.014 12.8323 105.178 12.635C105.287 12.5035 105.322 12.0126 105.292 11.0582C105.247 9.68055 105.244 9.67011 104.821 9.29183L104.395 8.91134H97.8946L97.4931 9.31284ZM132.337 9.09349C131.8 9.39113 131.68 9.78715 131.675 11.2787C131.671 12.4275 131.706 12.6812 131.877 12.7467C132.21 12.8747 139.546 12.8333 139.753 12.7023C140.255 12.385 140.066 9.84927 139.498 9.28153L139.128 8.91134L135.888 8.91591C133.45 8.91943 132.572 8.9634 132.337 9.09349ZM65.1721 9.22933C64.3617 9.58203 64.3399 9.68498 64.3399 13.1674V16.3213L65.097 17.1319H71.8037L72.691 16.2446V13.2239C72.691 8.85849 72.8725 9.03921 68.4957 9.04691C66.3348 9.0507 65.4741 9.09793 65.1721 9.22933Z" fill="white"/>
<path d="M34.3323 20.5253C34.3323 20.4473 34.225 20.2863 34.0937 20.1675C33.8749 19.9694 32.7166 19.9516 20.106 19.9516H6.3569L3.50267 22.7896C1.93281 24.3505 0.589856 25.7341 0.51835 25.8644C0.170999 26.4958 -0.289874 26.4758 14.6136 26.4758H28.528L31.4301 23.5715C33.0263 21.9741 34.3323 20.6033 34.3323 20.5253Z" fill="url(#paint0_linear_445_21711)"/>
<path d="M34.2284 16.2267C34.3762 15.9022 34.2816 15.7913 31.4206 12.9302L28.4599 9.96946L14.7107 9.93514C1.56541 9.90226 0.948606 9.91113 0.66728 10.139C0.206016 10.5124 0.336762 10.6858 3.34196 13.6883L6.14987 16.4937L34.0755 16.5625L34.2284 16.2267Z" fill="url(#paint1_linear_445_21711)"/>
<path d="M31.3575 3.80758C34.395 0.781505 34.5346 0.597256 34.0734 0.223808C33.7954 -0.001278 33.1345 -0.0117201 20.2581 0.00511245C12.8203 0.0148988 6.61432 0.0468685 6.46701 0.0760971C6.31982 0.105326 4.88488 1.4445 3.27848 3.0522C0.463655 5.86911 0.363182 5.9872 0.509716 6.30858L0.661601 6.6421H28.5122L31.3575 3.80758Z" fill="url(#paint2_linear_445_21711)"/>
<defs>
<linearGradient id="paint0_linear_445_21711" x1="24.9268" y1="-5.27286" x2="0.406249" y2="29.461" gradientUnits="userSpaceOnUse">
<stop stop-color="#12EDAC"/>
<stop offset="1" stop-color="#D328FA"/>
</linearGradient>
<linearGradient id="paint1_linear_445_21711" x1="24.9268" y1="-5.27286" x2="0.406249" y2="29.461" gradientUnits="userSpaceOnUse">
<stop stop-color="#12EDAC"/>
<stop offset="1" stop-color="#D328FA"/>
</linearGradient>
<linearGradient id="paint2_linear_445_21711" x1="24.9268" y1="-5.27286" x2="0.406249" y2="29.461" gradientUnits="userSpaceOnUse">
<stop stop-color="#12EDAC"/>
<stop offset="1" stop-color="#D328FA"/>
</linearGradient>
</defs>
</svg>
