<svg width="49" height="49" viewBox="0 0 49 49" fill="none" xmlns="http://www.w3.org/2000/svg">
<path fill-rule="evenodd" clip-rule="evenodd" d="M6.73715 22.0709C18.0479 17.1429 25.5902 13.8942 29.364 12.3245C40.139 7.84283 42.378 7.06431 43.8373 7.0386C44.1582 7.03295 44.8759 7.11249 45.3408 7.4897C45.7333 7.8082 45.8413 8.23845 45.893 8.54043C45.9446 8.84241 46.009 9.53032 45.9578 10.0678C45.3739 16.2029 42.8474 31.0911 41.5621 37.9625C41.0182 40.8701 39.9473 41.8449 38.9105 41.9403C36.6573 42.1477 34.9464 40.4513 32.7641 39.0208C29.3493 36.7823 27.4201 35.3889 24.1054 33.2045C20.2747 30.6802 22.758 29.2927 24.9411 27.0253C25.5124 26.4319 35.4398 17.4021 35.632 16.583C35.656 16.4805 35.6783 16.0987 35.4515 15.897C35.2246 15.6954 34.8898 15.7643 34.6481 15.8192C34.3056 15.8969 28.8504 19.5026 18.2824 26.6363C16.7339 27.6996 15.3314 28.2177 14.0747 28.1905C12.6894 28.1606 10.0246 27.4072 8.04354 26.7633C5.61373 25.9734 3.68256 25.5559 3.85072 24.2145C3.93831 23.5158 4.90045 22.8013 6.73715 22.0709Z" fill="white"/>
</svg>
