<svg width="49" height="49" viewBox="0 0 49 49" fill="none" xmlns="http://www.w3.org/2000/svg">
<g clip-path="url(#clip0_443_19854)">
<path d="M15.8725 43.998C33.9812 43.998 43.8887 28.9915 43.8887 15.9818C43.8887 15.5599 43.8793 15.1286 43.8606 14.7068C45.7879 13.313 47.4511 11.5866 48.7722 9.60864C46.9772 10.4072 45.0714 10.9288 43.12 11.1555C45.1747 9.92386 46.7132 7.98899 47.4503 5.70958C45.5173 6.85516 43.4033 7.66327 41.199 8.09927C39.7138 6.52117 37.7501 5.47628 35.6115 5.12615C33.4729 4.77602 31.2785 5.14015 29.3676 6.16224C27.4567 7.18433 25.9358 8.80746 25.0399 10.7807C24.1439 12.7539 23.923 14.9673 24.4112 17.0786C20.4971 16.8822 16.668 15.8655 13.1721 14.0942C9.67621 12.323 6.59154 9.83692 4.11809 6.79708C2.86095 8.96453 2.47627 11.5293 3.04222 13.9702C3.60817 16.4111 5.08228 18.5449 7.16497 19.938C5.60141 19.8884 4.07211 19.4674 2.70341 18.7099V18.8318C2.702 21.1063 3.48835 23.3112 4.92878 25.0716C6.3692 26.832 8.3748 28.0392 10.6047 28.488C9.15627 28.8843 7.63612 28.942 6.16184 28.6568C6.79107 30.6129 8.0153 32.3238 9.6637 33.5507C11.3121 34.7776 13.3024 35.4592 15.3568 35.5005C11.869 38.2403 7.5605 39.7263 3.12528 39.7193C2.33873 39.7181 1.55295 39.6699 0.772156 39.5749C5.27787 42.4655 10.5192 44.0008 15.8725 43.998Z" fill="white"/>
</g>
<defs>
<clipPath id="clip0_443_19854">
<rect width="48" height="48" fill="white" transform="translate(0.772156 0.498047)"/>
</clipPath>
</defs>
</svg>
