<svg width="49" height="49" viewBox="0 0 49 49" fill="none" xmlns="http://www.w3.org/2000/svg">
<g clip-path="url(#clip0_443_19855)">
<path d="M48.1573 14.8981C48.1573 14.8981 47.6886 11.5888 46.2448 10.1356C44.4167 8.22314 42.3729 8.21377 41.4354 8.10127C34.7229 7.61377 24.6448 7.61377 24.6448 7.61377H24.6261C24.6261 7.61377 14.5479 7.61377 7.83544 8.10127C6.89794 8.21377 4.85419 8.22314 3.02606 10.1356C1.58231 11.5888 1.12294 14.8981 1.12294 14.8981C1.12294 14.8981 0.635437 18.7888 0.635437 22.67V26.3075C0.635437 30.1888 1.11356 34.0794 1.11356 34.0794C1.11356 34.0794 1.58231 37.3888 3.01669 38.8419C4.84481 40.7544 7.24481 40.6888 8.31356 40.895C12.1573 41.2606 24.6354 41.3731 24.6354 41.3731C24.6354 41.3731 34.7229 41.3544 41.4354 40.8763C42.3729 40.7638 44.4167 40.7544 46.2448 38.8419C47.6886 37.3888 48.1573 34.0794 48.1573 34.0794C48.1573 34.0794 48.6354 30.1981 48.6354 26.3075V22.67C48.6354 18.7888 48.1573 14.8981 48.1573 14.8981ZM19.6761 30.7231V17.2325L32.6417 24.0013L19.6761 30.7231Z" fill="white"/>
</g>
<defs>
<clipPath id="clip0_443_19855">
<rect width="48" height="48" fill="white" transform="translate(0.635437 0.498047)"/>
</clipPath>
</defs>
</svg>
